<svg width="1920" height="1080" viewBox="0 0 1920 1080" fill="none" xmlns="http://www.w3.org/2000/svg">
<g clip-path="url(#clip0_447_145)">
<rect width="1920" height="1080" fill="white"/>
<path d="M1784.09 49V38.4148H1786.32V47.1548H1790.86V49H1784.09ZM1794.57 49.1499C1794.06 49.1499 1793.61 49.062 1793.21 48.8863C1792.82 48.7071 1792.5 48.4435 1792.27 48.0955C1792.04 47.744 1791.93 47.3064 1791.93 46.7827C1791.93 46.3416 1792.01 45.9712 1792.17 45.6715C1792.34 45.3717 1792.56 45.1305 1792.84 44.9479C1793.11 44.7652 1793.43 44.6274 1793.79 44.5344C1794.15 44.4413 1794.52 44.3759 1794.91 44.338C1795.38 44.2897 1795.75 44.2449 1796.03 44.2036C1796.31 44.1588 1796.52 44.0933 1796.64 44.0072C1796.77 43.921 1796.84 43.7936 1796.84 43.6247V43.5937C1796.84 43.2664 1796.73 43.0131 1796.53 42.8339C1796.32 42.6548 1796.03 42.5652 1795.66 42.5652C1795.26 42.5652 1794.95 42.653 1794.71 42.8288C1794.48 43.001 1794.32 43.2181 1794.25 43.48L1792.21 43.3146C1792.31 42.8322 1792.52 42.4153 1792.82 42.0638C1793.12 41.7089 1793.51 41.4367 1793.99 41.2472C1794.48 41.0542 1795.03 40.9577 1795.67 40.9577C1796.11 40.9577 1796.53 41.0094 1796.93 41.1128C1797.34 41.2162 1797.7 41.3764 1798.01 41.5935C1798.33 41.8106 1798.58 42.0897 1798.76 42.4308C1798.95 42.7685 1799.04 43.1733 1799.04 43.6454V49H1796.95V47.8991H1796.89C1796.76 48.1472 1796.59 48.366 1796.38 48.5555C1796.16 48.7416 1795.91 48.888 1795.61 48.9948C1795.31 49.0982 1794.96 49.1499 1794.57 49.1499ZM1795.2 47.6303C1795.52 47.6303 1795.81 47.5666 1796.06 47.4391C1796.3 47.3082 1796.5 47.1324 1796.64 46.9119C1796.78 46.6914 1796.85 46.4416 1796.85 46.1625V45.32C1796.78 45.3648 1796.69 45.4061 1796.57 45.444C1796.45 45.4785 1796.32 45.5112 1796.17 45.5422C1796.02 45.5698 1795.87 45.5957 1795.72 45.6198C1795.58 45.6404 1795.44 45.6594 1795.32 45.6766C1795.06 45.7145 1794.84 45.7748 1794.64 45.8575C1794.45 45.9402 1794.3 46.0522 1794.19 46.1935C1794.09 46.3313 1794.03 46.5036 1794.03 46.7103C1794.03 47.0101 1794.14 47.2392 1794.36 47.3978C1794.58 47.5528 1794.86 47.6303 1795.2 47.6303ZM1807.35 43.3249L1805.34 43.449C1805.3 43.2767 1805.23 43.1216 1805.11 42.9838C1805 42.8425 1804.85 42.7306 1804.66 42.6479C1804.48 42.5617 1804.26 42.5186 1804.01 42.5186C1803.67 42.5186 1803.38 42.591 1803.14 42.7357C1802.91 42.877 1802.79 43.0665 1802.79 43.3043C1802.79 43.4938 1802.87 43.654 1803.02 43.7849C1803.17 43.9159 1803.43 44.021 1803.8 44.1002L1805.24 44.3897C1806.01 44.5482 1806.58 44.8031 1806.96 45.1546C1807.34 45.5061 1807.53 45.9678 1807.53 46.5398C1807.53 47.0601 1807.38 47.5166 1807.07 47.9094C1806.77 48.3022 1806.35 48.6089 1805.82 48.8294C1805.29 49.0465 1804.69 49.1551 1804 49.1551C1802.95 49.1551 1802.11 48.9363 1801.49 48.4987C1800.86 48.0576 1800.5 47.4581 1800.39 46.7L1802.56 46.5863C1802.63 46.9067 1802.78 47.1514 1803.04 47.3202C1803.29 47.4856 1803.61 47.5683 1804 47.5683C1804.39 47.5683 1804.7 47.4942 1804.93 47.3461C1805.17 47.1945 1805.29 46.9998 1805.29 46.762C1805.29 46.5622 1805.21 46.3985 1805.04 46.271C1804.88 46.1401 1804.62 46.0401 1804.28 45.9712L1802.9 45.6973C1802.13 45.5422 1801.55 45.2735 1801.17 44.891C1800.79 44.5085 1800.61 44.021 1800.61 43.4283C1800.61 42.9183 1800.74 42.479 1801.02 42.1103C1801.3 41.7416 1801.69 41.4574 1802.19 41.2575C1802.7 41.0577 1803.29 40.9577 1803.97 40.9577C1804.97 40.9577 1805.76 41.1697 1806.34 41.5935C1806.92 42.0173 1807.26 42.5945 1807.35 43.3249ZM1813.14 41.0611V42.7151H1808.36V41.0611H1813.14ZM1809.45 39.1591H1811.65V46.5604C1811.65 46.7637 1811.68 46.9222 1811.74 47.036C1811.8 47.1462 1811.89 47.2237 1812 47.2685C1812.11 47.3133 1812.24 47.3357 1812.39 47.3357C1812.5 47.3357 1812.6 47.3271 1812.7 47.3099C1812.81 47.2892 1812.88 47.2737 1812.94 47.2634L1813.29 48.9018C1813.18 48.9363 1813.02 48.9759 1812.82 49.0207C1812.62 49.0689 1812.38 49.0982 1812.09 49.1085C1811.56 49.1292 1811.1 49.0586 1810.7 48.8966C1810.3 48.7347 1809.99 48.4831 1809.77 48.142C1809.55 47.8009 1809.44 47.3702 1809.45 46.8499V39.1591ZM1823.04 45.6198V41.0611H1825.24V49H1823.12V47.558H1823.04C1822.86 48.0231 1822.56 48.397 1822.15 48.6796C1821.73 48.9621 1821.23 49.1034 1820.63 49.1034C1820.1 49.1034 1819.63 48.9828 1819.23 48.7416C1818.83 48.5004 1818.51 48.1575 1818.29 47.713C1818.06 47.2685 1817.95 46.7362 1817.94 46.116V41.0611H1820.15V45.7231C1820.15 46.1918 1820.28 46.5622 1820.52 46.8344C1820.77 47.1066 1821.1 47.2427 1821.52 47.2427C1821.79 47.2427 1822.03 47.1824 1822.27 47.0618C1822.5 46.9378 1822.68 46.7551 1822.82 46.5139C1822.97 46.2727 1823.04 45.9747 1823.04 45.6198ZM1827 51.9771V41.0611H1829.17V42.3946H1829.27C1829.36 42.181 1829.5 41.9639 1829.69 41.7434C1829.87 41.5194 1830.11 41.3333 1830.41 41.1852C1830.71 41.0336 1831.08 40.9577 1831.53 40.9577C1832.1 40.9577 1832.64 41.1094 1833.13 41.4126C1833.62 41.7124 1834.01 42.1655 1834.3 42.7719C1834.59 43.3749 1834.74 44.1312 1834.74 45.0409C1834.74 45.9264 1834.6 46.6742 1834.31 47.284C1834.03 47.8905 1833.64 48.3505 1833.15 48.664C1832.67 48.9742 1832.12 49.1292 1831.52 49.1292C1831.09 49.1292 1830.73 49.0586 1830.43 48.9173C1830.13 48.776 1829.89 48.5986 1829.7 48.3849C1829.51 48.1679 1829.37 47.9491 1829.27 47.7285H1829.2V51.9771H1827ZM1829.15 45.0306C1829.15 45.5026 1829.22 45.9144 1829.35 46.2658C1829.48 46.6173 1829.67 46.8912 1829.92 47.0876C1830.17 47.2806 1830.47 47.3771 1830.82 47.3771C1831.18 47.3771 1831.48 47.2789 1831.73 47.0825C1831.98 46.8826 1832.17 46.607 1832.3 46.2555C1832.43 45.9006 1832.49 45.4923 1832.49 45.0306C1832.49 44.5723 1832.43 44.1691 1832.3 43.8211C1832.17 43.4731 1831.99 43.2009 1831.74 43.0045C1831.49 42.8081 1831.18 42.7099 1830.82 42.7099C1830.46 42.7099 1830.16 42.8046 1829.91 42.9942C1829.67 43.1837 1829.48 43.4524 1829.35 43.8004C1829.22 44.1485 1829.15 44.5585 1829.15 45.0306ZM1839.13 49.1292C1838.53 49.1292 1837.99 48.9742 1837.5 48.664C1837.01 48.3505 1836.62 47.8905 1836.34 47.284C1836.06 46.6742 1835.91 45.9264 1835.91 45.0409C1835.91 44.1312 1836.06 43.3749 1836.35 42.7719C1836.65 42.1655 1837.04 41.7124 1837.52 41.4126C1838.01 41.1094 1838.55 40.9577 1839.13 40.9577C1839.57 40.9577 1839.94 41.0336 1840.24 41.1852C1840.54 41.3333 1840.78 41.5194 1840.96 41.7434C1841.15 41.9639 1841.29 42.181 1841.39 42.3946H1841.45V38.4148H1843.65V49H1841.48V47.7285H1841.39C1841.28 47.9491 1841.14 48.1679 1840.95 48.3849C1840.76 48.5986 1840.52 48.776 1840.22 48.9173C1839.92 49.0586 1839.56 49.1292 1839.13 49.1292ZM1839.83 47.3771C1840.19 47.3771 1840.49 47.2806 1840.73 47.0876C1840.98 46.8912 1841.17 46.6173 1841.3 46.2658C1841.43 45.9144 1841.5 45.5026 1841.5 45.0306C1841.5 44.5585 1841.44 44.1485 1841.3 43.8004C1841.17 43.4524 1840.98 43.1837 1840.74 42.9942C1840.49 42.8046 1840.19 42.7099 1839.83 42.7099C1839.47 42.7099 1839.17 42.8081 1838.92 43.0045C1838.67 43.2009 1838.48 43.4731 1838.35 43.8211C1838.23 44.1691 1838.16 44.5723 1838.16 45.0306C1838.16 45.4923 1838.23 45.9006 1838.35 46.2555C1838.48 46.607 1838.67 46.8826 1838.92 47.0825C1839.17 47.2789 1839.47 47.3771 1839.83 47.3771ZM1847.73 49.1499C1847.22 49.1499 1846.77 49.062 1846.37 48.8863C1845.98 48.7071 1845.66 48.4435 1845.43 48.0955C1845.2 47.744 1845.09 47.3064 1845.09 46.7827C1845.09 46.3416 1845.17 45.9712 1845.33 45.6715C1845.49 45.3717 1845.72 45.1305 1845.99 44.9479C1846.27 44.7652 1846.59 44.6274 1846.95 44.5344C1847.3 44.4413 1847.68 44.3759 1848.07 44.338C1848.53 44.2897 1848.91 44.2449 1849.19 44.2036C1849.47 44.1588 1849.68 44.0933 1849.8 44.0072C1849.93 43.921 1849.99 43.7936 1849.99 43.6247V43.5937C1849.99 43.2664 1849.89 43.0131 1849.68 42.8339C1849.48 42.6548 1849.19 42.5652 1848.82 42.5652C1848.42 42.5652 1848.1 42.653 1847.87 42.8288C1847.64 43.001 1847.48 43.2181 1847.41 43.48L1845.37 43.3146C1845.47 42.8322 1845.68 42.4153 1845.98 42.0638C1846.28 41.7089 1846.67 41.4367 1847.15 41.2472C1847.63 41.0542 1848.19 40.9577 1848.83 40.9577C1849.27 40.9577 1849.69 41.0094 1850.09 41.1128C1850.5 41.2162 1850.86 41.3764 1851.17 41.5935C1851.49 41.8106 1851.74 42.0897 1851.92 42.4308C1852.11 42.7685 1852.2 43.1733 1852.2 43.6454V49H1850.11V47.8991H1850.05C1849.92 48.1472 1849.75 48.366 1849.53 48.5555C1849.32 48.7416 1849.06 48.888 1848.76 48.9948C1848.46 49.0982 1848.12 49.1499 1847.73 49.1499ZM1848.36 47.6303C1848.68 47.6303 1848.97 47.5666 1849.21 47.4391C1849.46 47.3082 1849.66 47.1324 1849.8 46.9119C1849.94 46.6914 1850.01 46.4416 1850.01 46.1625V45.32C1849.94 45.3648 1849.85 45.4061 1849.73 45.444C1849.61 45.4785 1849.48 45.5112 1849.33 45.5422C1849.18 45.5698 1849.03 45.5957 1848.88 45.6198C1848.74 45.6404 1848.6 45.6594 1848.48 45.6766C1848.22 45.7145 1848 45.7748 1847.8 45.8575C1847.61 45.9402 1847.46 46.0522 1847.35 46.1935C1847.25 46.3313 1847.19 46.5036 1847.19 46.7103C1847.19 47.0101 1847.3 47.2392 1847.52 47.3978C1847.74 47.5528 1848.02 47.6303 1848.36 47.6303ZM1858.13 41.0611V42.7151H1853.35V41.0611H1858.13ZM1854.43 39.1591H1856.63V46.5604C1856.63 46.7637 1856.66 46.9222 1856.73 47.036C1856.79 47.1462 1856.87 47.2237 1856.99 47.2685C1857.1 47.3133 1857.23 47.3357 1857.38 47.3357C1857.48 47.3357 1857.58 47.3271 1857.69 47.3099C1857.79 47.2892 1857.87 47.2737 1857.93 47.2634L1858.27 48.9018C1858.16 48.9363 1858.01 48.9759 1857.81 49.0207C1857.61 49.0689 1857.36 49.0982 1857.08 49.1085C1856.55 49.1292 1856.08 49.0586 1855.68 48.8966C1855.29 48.7347 1854.98 48.4831 1854.76 48.142C1854.54 47.8009 1854.43 47.3702 1854.43 46.8499V39.1591ZM1863.09 49.1551C1862.28 49.1551 1861.57 48.9897 1860.99 48.6589C1860.4 48.3246 1859.95 47.8526 1859.63 47.2427C1859.31 46.6294 1859.16 45.904 1859.16 45.0667C1859.16 44.2501 1859.31 43.5334 1859.63 42.9166C1859.95 42.2998 1860.39 41.8192 1860.97 41.4746C1861.55 41.13 1862.23 40.9577 1863.01 40.9577C1863.53 40.9577 1864.02 41.0422 1864.47 41.211C1864.92 41.3764 1865.32 41.6262 1865.66 41.9604C1866 42.2947 1866.26 42.7151 1866.45 43.2216C1866.64 43.7246 1866.74 44.3139 1866.74 44.9892V45.5939H1860.03V44.2294H1864.67C1864.67 43.9124 1864.6 43.6316 1864.46 43.387C1864.32 43.1423 1864.13 42.9511 1863.89 42.8133C1863.64 42.672 1863.36 42.6013 1863.04 42.6013C1862.71 42.6013 1862.41 42.6789 1862.15 42.8339C1861.9 42.9855 1861.7 43.1906 1861.55 43.449C1861.41 43.704 1861.34 43.9882 1861.33 44.3018V45.5991C1861.33 45.9919 1861.4 46.3313 1861.55 46.6173C1861.7 46.9033 1861.91 47.1238 1862.17 47.2789C1862.44 47.4339 1862.76 47.5115 1863.13 47.5115C1863.38 47.5115 1863.6 47.477 1863.8 47.4081C1864.01 47.3392 1864.18 47.2358 1864.32 47.098C1864.47 46.9601 1864.58 46.7913 1864.66 46.5915L1866.69 46.7258C1866.59 47.2151 1866.38 47.6424 1866.06 48.0076C1865.74 48.3694 1865.33 48.652 1864.83 48.8553C1864.33 49.0551 1863.75 49.1551 1863.09 49.1551ZM1869.46 49.1344C1869.12 49.1344 1868.83 49.0138 1868.58 48.7726C1868.34 48.5279 1868.22 48.2351 1868.22 47.8939C1868.22 47.5563 1868.34 47.2668 1868.58 47.0256C1868.83 46.7844 1869.12 46.6638 1869.46 46.6638C1869.79 46.6638 1870.08 46.7844 1870.33 47.0256C1870.58 47.2668 1870.7 47.5563 1870.7 47.8939C1870.7 48.1213 1870.64 48.3298 1870.53 48.5193C1870.41 48.7054 1870.26 48.8553 1870.08 48.969C1869.89 49.0793 1869.69 49.1344 1869.46 49.1344ZM1869.46 43.573C1869.12 43.573 1868.83 43.4524 1868.58 43.2112C1868.34 42.97 1868.22 42.6771 1868.22 42.3326C1868.22 41.9949 1868.34 41.7072 1868.58 41.4694C1868.83 41.2282 1869.12 41.1076 1869.46 41.1076C1869.79 41.1076 1870.08 41.2282 1870.33 41.4694C1870.58 41.7072 1870.7 41.9949 1870.7 42.3326C1870.7 42.5634 1870.64 42.7736 1870.53 42.9631C1870.41 43.1492 1870.26 43.2974 1870.08 43.4076C1869.89 43.5179 1869.69 43.573 1869.46 43.573ZM1721.84 67.1447C1721.09 67.1447 1720.46 66.9311 1719.93 66.5038C1719.41 66.0731 1719 65.4512 1718.72 64.638C1718.44 63.8248 1718.3 62.8479 1718.3 61.7074C1718.3 60.5703 1718.44 59.5969 1718.72 58.7872C1719 57.974 1719.41 57.3521 1719.94 56.9213C1720.47 56.4872 1721.1 56.2701 1721.84 56.2701C1722.58 56.2701 1723.21 56.4872 1723.73 56.9213C1724.27 57.3521 1724.67 57.974 1724.95 58.7872C1725.23 59.5969 1725.37 60.5703 1725.37 61.7074C1725.37 62.8479 1725.23 63.8248 1724.95 64.638C1724.67 65.4512 1724.27 66.0731 1723.74 66.5038C1723.22 66.9311 1722.58 67.1447 1721.84 67.1447ZM1721.84 66.2764C1722.65 66.2764 1723.29 65.8784 1723.75 65.0825C1724.21 64.2831 1724.44 63.158 1724.44 61.7074C1724.44 60.7426 1724.33 59.9191 1724.12 59.2368C1723.92 58.5512 1723.62 58.0274 1723.23 57.6656C1722.84 57.3038 1722.38 57.1229 1721.84 57.1229C1721.03 57.1229 1720.39 57.5261 1719.93 58.3324C1719.47 59.1352 1719.24 60.2602 1719.24 61.7074C1719.24 62.6722 1719.34 63.4957 1719.55 64.178C1719.76 64.8602 1720.06 65.3805 1720.44 65.7389C1720.83 66.0972 1721.3 66.2764 1721.84 66.2764ZM1730.76 67.1447C1730.02 67.1447 1729.38 66.9311 1728.86 66.5038C1728.33 66.0731 1727.93 65.4512 1727.65 64.638C1727.37 63.8248 1727.23 62.8479 1727.23 61.7074C1727.23 60.5703 1727.37 59.5969 1727.65 58.7872C1727.93 57.974 1728.33 57.3521 1728.86 56.9213C1729.39 56.4872 1730.03 56.2701 1730.76 56.2701C1731.5 56.2701 1732.13 56.4872 1732.66 56.9213C1733.19 57.3521 1733.6 57.974 1733.88 58.7872C1734.16 59.5969 1734.3 60.5703 1734.3 61.7074C1734.3 62.8479 1734.16 63.8248 1733.88 64.638C1733.6 65.4512 1733.19 66.0731 1732.67 66.5038C1732.14 66.9311 1731.51 67.1447 1730.76 67.1447ZM1730.76 66.2764C1731.58 66.2764 1732.22 65.8784 1732.68 65.0825C1733.13 64.2831 1733.36 63.158 1733.36 61.7074C1733.36 60.7426 1733.26 59.9191 1733.05 59.2368C1732.84 58.5512 1732.54 58.0274 1732.15 57.6656C1731.77 57.3038 1731.31 57.1229 1730.76 57.1229C1729.95 57.1229 1729.32 57.5261 1728.86 58.3324C1728.4 59.1352 1728.16 60.2602 1728.16 61.7074C1728.16 62.6722 1728.27 63.4957 1728.47 64.178C1728.68 64.8602 1728.98 65.3805 1729.37 65.7389C1729.76 66.0972 1730.22 66.2764 1730.76 66.2764ZM1739.88 55.9186L1736.46 68.5919H1735.6L1739.01 55.9186H1739.88ZM1744.72 67.1447C1743.98 67.1447 1743.34 66.9311 1742.81 66.5038C1742.29 66.0731 1741.89 65.4512 1741.61 64.638C1741.33 63.8248 1741.19 62.8479 1741.19 61.7074C1741.19 60.5703 1741.33 59.5969 1741.61 58.7872C1741.89 57.974 1742.29 57.3521 1742.82 56.9213C1743.35 56.4872 1743.98 56.2701 1744.72 56.2701C1745.46 56.2701 1746.09 56.4872 1746.62 56.9213C1747.15 57.3521 1747.55 57.974 1747.83 58.7872C1748.12 59.5969 1748.26 60.5703 1748.26 61.7074C1748.26 62.8479 1748.12 63.8248 1747.83 64.638C1747.55 65.4512 1747.15 66.0731 1746.62 66.5038C1746.1 66.9311 1745.47 67.1447 1744.72 67.1447ZM1744.72 66.2764C1745.54 66.2764 1746.18 65.8784 1746.63 65.0825C1747.09 64.2831 1747.32 63.158 1747.32 61.7074C1747.32 60.7426 1747.22 59.9191 1747.01 59.2368C1746.8 58.5512 1746.5 58.0274 1746.11 57.6656C1745.73 57.3038 1745.26 57.1229 1744.72 57.1229C1743.91 57.1229 1743.28 57.5261 1742.81 58.3324C1742.35 59.1352 1742.12 60.2602 1742.12 61.7074C1742.12 62.6722 1742.23 63.4957 1742.43 64.178C1742.64 64.8602 1742.94 65.3805 1743.33 65.7389C1743.72 66.0972 1744.18 66.2764 1744.72 66.2764ZM1753.65 67.1447C1752.9 67.1447 1752.27 66.9311 1751.74 66.5038C1751.22 66.0731 1750.81 65.4512 1750.53 64.638C1750.25 63.8248 1750.11 62.8479 1750.11 61.7074C1750.11 60.5703 1750.25 59.5969 1750.53 58.7872C1750.81 57.974 1751.22 57.3521 1751.75 56.9213C1752.28 56.4872 1752.91 56.2701 1753.65 56.2701C1754.39 56.2701 1755.02 56.4872 1755.54 56.9213C1756.08 57.3521 1756.48 57.974 1756.76 58.7872C1757.04 59.5969 1757.18 60.5703 1757.18 61.7074C1757.18 62.8479 1757.04 63.8248 1756.76 64.638C1756.48 65.4512 1756.08 66.0731 1755.55 66.5038C1755.03 66.9311 1754.39 67.1447 1753.65 67.1447ZM1753.65 66.2764C1754.46 66.2764 1755.1 65.8784 1755.56 65.0825C1756.02 64.2831 1756.25 63.158 1756.25 61.7074C1756.25 60.7426 1756.14 59.9191 1755.93 59.2368C1755.73 58.5512 1755.43 58.0274 1755.04 57.6656C1754.65 57.3038 1754.19 57.1229 1753.65 57.1229C1752.84 57.1229 1752.2 57.5261 1751.74 58.3324C1751.28 59.1352 1751.05 60.2602 1751.05 61.7074C1751.05 62.6722 1751.15 63.4957 1751.36 64.178C1751.57 64.8602 1751.87 65.3805 1752.25 65.7389C1752.64 66.0972 1753.11 66.2764 1753.65 66.2764ZM1762.76 55.9186L1759.35 68.5919H1758.49L1761.9 55.9186H1762.76ZM1767.61 67.1447C1766.86 67.1447 1766.23 66.9311 1765.7 66.5038C1765.17 66.0731 1764.77 65.4512 1764.49 64.638C1764.21 63.8248 1764.07 62.8479 1764.07 61.7074C1764.07 60.5703 1764.21 59.5969 1764.49 58.7872C1764.77 57.974 1765.18 57.3521 1765.7 56.9213C1766.23 56.4872 1766.87 56.2701 1767.61 56.2701C1768.34 56.2701 1768.98 56.4872 1769.5 56.9213C1770.03 57.3521 1770.44 57.974 1770.72 58.7872C1771 59.5969 1771.14 60.5703 1771.14 61.7074C1771.14 62.8479 1771 63.8248 1770.72 64.638C1770.44 65.4512 1770.03 66.0731 1769.51 66.5038C1768.98 66.9311 1768.35 67.1447 1767.61 67.1447ZM1767.61 66.2764C1768.42 66.2764 1769.06 65.8784 1769.52 65.0825C1769.98 64.2831 1770.21 63.158 1770.21 61.7074C1770.21 60.7426 1770.1 59.9191 1769.89 59.2368C1769.68 58.5512 1769.39 58.0274 1769 57.6656C1768.61 57.3038 1768.15 57.1229 1767.61 57.1229C1766.8 57.1229 1766.16 57.5261 1765.7 58.3324C1765.24 59.1352 1765.01 60.2602 1765.01 61.7074C1765.01 62.6722 1765.11 63.4957 1765.32 64.178C1765.53 64.8602 1765.82 65.3805 1766.21 65.7389C1766.6 66.0972 1767.06 66.2764 1767.61 66.2764ZM1776.53 67.1447C1775.79 67.1447 1775.15 66.9311 1774.62 66.5038C1774.1 66.0731 1773.7 65.4512 1773.41 64.638C1773.14 63.8248 1773 62.8479 1773 61.7074C1773 60.5703 1773.14 59.5969 1773.41 58.7872C1773.7 57.974 1774.1 57.3521 1774.63 56.9213C1775.16 56.4872 1775.79 56.2701 1776.53 56.2701C1777.27 56.2701 1777.9 56.4872 1778.43 56.9213C1778.96 57.3521 1779.36 57.974 1779.64 58.7872C1779.93 59.5969 1780.07 60.5703 1780.07 61.7074C1780.07 62.8479 1779.93 63.8248 1779.64 64.638C1779.36 65.4512 1778.96 66.0731 1778.43 66.5038C1777.91 66.9311 1777.28 67.1447 1776.53 67.1447ZM1776.53 66.2764C1777.35 66.2764 1777.99 65.8784 1778.44 65.0825C1778.9 64.2831 1779.13 63.158 1779.13 61.7074C1779.13 60.7426 1779.03 59.9191 1778.82 59.2368C1778.61 58.5512 1778.31 58.0274 1777.92 57.6656C1777.54 57.3038 1777.07 57.1229 1776.53 57.1229C1775.72 57.1229 1775.09 57.5261 1774.62 58.3324C1774.16 59.1352 1773.93 60.2602 1773.93 61.7074C1773.93 62.6722 1774.04 63.4957 1774.24 64.178C1774.45 64.8602 1774.75 65.3805 1775.14 65.7389C1775.53 66.0972 1775.99 66.2764 1776.53 66.2764ZM1785.46 67.1447C1784.71 67.1447 1784.08 66.9311 1783.55 66.5038C1783.03 66.0731 1782.62 65.4512 1782.34 64.638C1782.06 63.8248 1781.92 62.8479 1781.92 61.7074C1781.92 60.5703 1782.06 59.5969 1782.34 58.7872C1782.62 57.974 1783.03 57.3521 1783.56 56.9213C1784.09 56.4872 1784.72 56.2701 1785.46 56.2701C1786.19 56.2701 1786.83 56.4872 1787.35 56.9213C1787.89 57.3521 1788.29 57.974 1788.57 58.7872C1788.85 59.5969 1788.99 60.5703 1788.99 61.7074C1788.99 62.8479 1788.85 63.8248 1788.57 64.638C1788.29 65.4512 1787.89 66.0731 1787.36 66.5038C1786.84 66.9311 1786.2 67.1447 1785.46 67.1447ZM1785.46 66.2764C1786.27 66.2764 1786.91 65.8784 1787.37 65.0825C1787.83 64.2831 1788.06 63.158 1788.06 61.7074C1788.06 60.7426 1787.95 59.9191 1787.74 59.2368C1787.54 58.5512 1787.24 58.0274 1786.85 57.6656C1786.46 57.3038 1786 57.1229 1785.46 57.1229C1784.65 57.1229 1784.01 57.5261 1783.55 58.3324C1783.09 59.1352 1782.86 60.2602 1782.86 61.7074C1782.86 62.6722 1782.96 63.4957 1783.17 64.178C1783.38 64.8602 1783.68 65.3805 1784.06 65.7389C1784.45 66.0972 1784.92 66.2764 1785.46 66.2764ZM1794.38 67.1447C1793.64 67.1447 1793 66.9311 1792.48 66.5038C1791.95 66.0731 1791.55 65.4512 1791.27 64.638C1790.99 63.8248 1790.85 62.8479 1790.85 61.7074C1790.85 60.5703 1790.99 59.5969 1791.27 58.7872C1791.55 57.974 1791.95 57.3521 1792.48 56.9213C1793.01 56.4872 1793.65 56.2701 1794.38 56.2701C1795.12 56.2701 1795.75 56.4872 1796.28 56.9213C1796.81 57.3521 1797.22 57.974 1797.5 58.7872C1797.78 59.5969 1797.92 60.5703 1797.92 61.7074C1797.92 62.8479 1797.78 63.8248 1797.5 64.638C1797.22 65.4512 1796.81 66.0731 1796.29 66.5038C1795.76 66.9311 1795.13 67.1447 1794.38 67.1447ZM1794.38 66.2764C1795.2 66.2764 1795.84 65.8784 1796.3 65.0825C1796.75 64.2831 1796.98 63.158 1796.98 61.7074C1796.98 60.7426 1796.88 59.9191 1796.67 59.2368C1796.46 58.5512 1796.16 58.0274 1795.77 57.6656C1795.39 57.3038 1794.92 57.1229 1794.38 57.1229C1793.57 57.1229 1792.94 57.5261 1792.48 58.3324C1792.01 59.1352 1791.78 60.2602 1791.78 61.7074C1791.78 62.6722 1791.89 63.4957 1792.09 64.178C1792.3 64.8602 1792.6 65.3805 1792.99 65.7389C1793.38 66.0972 1793.84 66.2764 1794.38 66.2764ZM1808.44 61.2733V62.1416H1804.03V61.2733H1808.44ZM1818.09 67.1447C1817.35 67.1447 1816.71 66.9311 1816.18 66.5038C1815.66 66.0731 1815.26 65.4512 1814.98 64.638C1814.7 63.8248 1814.56 62.8479 1814.56 61.7074C1814.56 60.5703 1814.7 59.5969 1814.98 58.7872C1815.26 57.974 1815.66 57.3521 1816.19 56.9213C1816.72 56.4872 1817.35 56.2701 1818.09 56.2701C1818.83 56.2701 1819.46 56.4872 1819.99 56.9213C1820.52 57.3521 1820.92 57.974 1821.2 58.7872C1821.49 59.5969 1821.63 60.5703 1821.63 61.7074C1821.63 62.8479 1821.49 63.8248 1821.2 64.638C1820.92 65.4512 1820.52 66.0731 1819.99 66.5038C1819.47 66.9311 1818.84 67.1447 1818.09 67.1447ZM1818.09 66.2764C1818.91 66.2764 1819.55 65.8784 1820 65.0825C1820.46 64.2831 1820.69 63.158 1820.69 61.7074C1820.69 60.7426 1820.59 59.9191 1820.38 59.2368C1820.17 58.5512 1819.87 58.0274 1819.48 57.6656C1819.1 57.3038 1818.63 57.1229 1818.09 57.1229C1817.28 57.1229 1816.65 57.5261 1816.18 58.3324C1815.72 59.1352 1815.49 60.2602 1815.49 61.7074C1815.49 62.6722 1815.6 63.4957 1815.8 64.178C1816.01 64.8602 1816.31 65.3805 1816.7 65.7389C1817.09 66.0972 1817.55 66.2764 1818.09 66.2764ZM1827.02 67.1447C1826.27 67.1447 1825.64 66.9311 1825.11 66.5038C1824.59 66.0731 1824.18 65.4512 1823.9 64.638C1823.62 63.8248 1823.48 62.8479 1823.48 61.7074C1823.48 60.5703 1823.62 59.5969 1823.9 58.7872C1824.18 57.974 1824.59 57.3521 1825.12 56.9213C1825.65 56.4872 1826.28 56.2701 1827.02 56.2701C1827.76 56.2701 1828.39 56.4872 1828.91 56.9213C1829.45 57.3521 1829.85 57.974 1830.13 58.7872C1830.41 59.5969 1830.55 60.5703 1830.55 61.7074C1830.55 62.8479 1830.41 63.8248 1830.13 64.638C1829.85 65.4512 1829.45 66.0731 1828.92 66.5038C1828.4 66.9311 1827.76 67.1447 1827.02 67.1447ZM1827.02 66.2764C1827.83 66.2764 1828.47 65.8784 1828.93 65.0825C1829.39 64.2831 1829.62 63.158 1829.62 61.7074C1829.62 60.7426 1829.51 59.9191 1829.3 59.2368C1829.1 58.5512 1828.8 58.0274 1828.41 57.6656C1828.02 57.3038 1827.56 57.1229 1827.02 57.1229C1826.21 57.1229 1825.57 57.5261 1825.11 58.3324C1824.65 59.1352 1824.42 60.2602 1824.42 61.7074C1824.42 62.6722 1824.52 63.4957 1824.73 64.178C1824.94 64.8602 1825.24 65.3805 1825.62 65.7389C1826.01 66.0972 1826.48 66.2764 1827.02 66.2764ZM1833.43 65.4133C1833.22 65.4133 1833.05 65.3409 1832.9 65.1962C1832.75 65.048 1832.68 64.8723 1832.68 64.669C1832.68 64.4622 1832.75 64.2865 1832.9 64.1418C1833.05 63.9971 1833.22 63.9247 1833.43 63.9247C1833.63 63.9247 1833.81 63.9971 1833.95 64.1418C1834.1 64.2865 1834.17 64.4622 1834.17 64.669C1834.17 64.8034 1834.14 64.9274 1834.07 65.0411C1834 65.1548 1833.91 65.2461 1833.8 65.3151C1833.69 65.3805 1833.56 65.4133 1833.43 65.4133ZM1833.43 60.0431C1833.22 60.0431 1833.05 59.9708 1832.9 59.8261C1832.75 59.6779 1832.68 59.5022 1832.68 59.2989C1832.68 59.0956 1832.75 58.9216 1832.9 58.7768C1833.05 58.6287 1833.22 58.5546 1833.43 58.5546C1833.63 58.5546 1833.81 58.6287 1833.95 58.7768C1834.1 58.9216 1834.17 59.0956 1834.17 59.2989C1834.17 59.4333 1834.14 59.5573 1834.07 59.671C1834 59.7847 1833.91 59.876 1833.8 59.9449C1833.69 60.0104 1833.56 60.0431 1833.43 60.0431ZM1839.85 67.1447C1839.11 67.1447 1838.47 66.9311 1837.95 66.5038C1837.42 66.0731 1837.02 65.4512 1836.74 64.638C1836.46 63.8248 1836.32 62.8479 1836.32 61.7074C1836.32 60.5703 1836.46 59.5969 1836.74 58.7872C1837.02 57.974 1837.42 57.3521 1837.95 56.9213C1838.48 56.4872 1839.12 56.2701 1839.85 56.2701C1840.59 56.2701 1841.22 56.4872 1841.75 56.9213C1842.28 57.3521 1842.68 57.974 1842.96 58.7872C1843.25 59.5969 1843.39 60.5703 1843.39 61.7074C1843.39 62.8479 1843.25 63.8248 1842.96 64.638C1842.68 65.4512 1842.28 66.0731 1841.75 66.5038C1841.23 66.9311 1840.6 67.1447 1839.85 67.1447ZM1839.85 66.2764C1840.67 66.2764 1841.31 65.8784 1841.76 65.0825C1842.22 64.2831 1842.45 63.158 1842.45 61.7074C1842.45 60.7426 1842.35 59.9191 1842.14 59.2368C1841.93 58.5512 1841.63 58.0274 1841.24 57.6656C1840.86 57.3038 1840.39 57.1229 1839.85 57.1229C1839.04 57.1229 1838.41 57.5261 1837.95 58.3324C1837.48 59.1352 1837.25 60.2602 1837.25 61.7074C1837.25 62.6722 1837.36 63.4957 1837.56 64.178C1837.77 64.8602 1838.07 65.3805 1838.46 65.7389C1838.85 66.0972 1839.31 66.2764 1839.85 66.2764ZM1848.78 67.1447C1848.03 67.1447 1847.4 66.9311 1846.87 66.5038C1846.35 66.0731 1845.94 65.4512 1845.66 64.638C1845.38 63.8248 1845.24 62.8479 1845.24 61.7074C1845.24 60.5703 1845.38 59.5969 1845.66 58.7872C1845.94 57.974 1846.35 57.3521 1846.88 56.9213C1847.41 56.4872 1848.04 56.2701 1848.78 56.2701C1849.52 56.2701 1850.15 56.4872 1850.68 56.9213C1851.21 57.3521 1851.61 57.974 1851.89 58.7872C1852.17 59.5969 1852.31 60.5703 1852.31 61.7074C1852.31 62.8479 1852.17 63.8248 1851.89 64.638C1851.61 65.4512 1851.21 66.0731 1850.68 66.5038C1850.16 66.9311 1849.52 67.1447 1848.78 67.1447ZM1848.78 66.2764C1849.6 66.2764 1850.23 65.8784 1850.69 65.0825C1851.15 64.2831 1851.38 63.158 1851.38 61.7074C1851.38 60.7426 1851.27 59.9191 1851.06 59.2368C1850.86 58.5512 1850.56 58.0274 1850.17 57.6656C1849.78 57.3038 1849.32 57.1229 1848.78 57.1229C1847.97 57.1229 1847.33 57.5261 1846.87 58.3324C1846.41 59.1352 1846.18 60.2602 1846.18 61.7074C1846.18 62.6722 1846.28 63.4957 1846.49 64.178C1846.7 64.8602 1847 65.3805 1847.38 65.7389C1847.77 66.0972 1848.24 66.2764 1848.78 66.2764ZM1855.19 65.4133C1854.98 65.4133 1854.81 65.3409 1854.66 65.1962C1854.52 65.048 1854.44 64.8723 1854.44 64.669C1854.44 64.4622 1854.52 64.2865 1854.66 64.1418C1854.81 63.9971 1854.98 63.9247 1855.19 63.9247C1855.39 63.9247 1855.57 63.9971 1855.71 64.1418C1855.86 64.2865 1855.93 64.4622 1855.93 64.669C1855.93 64.8034 1855.9 64.9274 1855.83 65.0411C1855.76 65.1548 1855.67 65.2461 1855.56 65.3151C1855.45 65.3805 1855.33 65.4133 1855.19 65.4133ZM1855.19 60.0431C1854.98 60.0431 1854.81 59.9708 1854.66 59.8261C1854.52 59.6779 1854.44 59.5022 1854.44 59.2989C1854.44 59.0956 1854.52 58.9216 1854.66 58.7768C1854.81 58.6287 1854.98 58.5546 1855.19 58.5546C1855.39 58.5546 1855.57 58.6287 1855.71 58.7768C1855.86 58.9216 1855.93 59.0956 1855.93 59.2989C1855.93 59.4333 1855.9 59.5573 1855.83 59.671C1855.76 59.7847 1855.67 59.876 1855.56 59.9449C1855.45 60.0104 1855.33 60.0431 1855.19 60.0431ZM1861.61 67.1447C1860.87 67.1447 1860.23 66.9311 1859.71 66.5038C1859.18 66.0731 1858.78 65.4512 1858.5 64.638C1858.22 63.8248 1858.08 62.8479 1858.08 61.7074C1858.08 60.5703 1858.22 59.5969 1858.5 58.7872C1858.78 57.974 1859.18 57.3521 1859.71 56.9213C1860.24 56.4872 1860.88 56.2701 1861.61 56.2701C1862.35 56.2701 1862.98 56.4872 1863.51 56.9213C1864.04 57.3521 1864.45 57.974 1864.72 58.7872C1865.01 59.5969 1865.15 60.5703 1865.15 61.7074C1865.15 62.8479 1865.01 63.8248 1864.72 64.638C1864.45 65.4512 1864.04 66.0731 1863.52 66.5038C1862.99 66.9311 1862.36 67.1447 1861.61 67.1447ZM1861.61 66.2764C1862.43 66.2764 1863.07 65.8784 1863.53 65.0825C1863.98 64.2831 1864.21 63.158 1864.21 61.7074C1864.21 60.7426 1864.11 59.9191 1863.9 59.2368C1863.69 58.5512 1863.39 58.0274 1863 57.6656C1862.62 57.3038 1862.15 57.1229 1861.61 57.1229C1860.8 57.1229 1860.17 57.5261 1859.71 58.3324C1859.24 59.1352 1859.01 60.2602 1859.01 61.7074C1859.01 62.6722 1859.12 63.4957 1859.32 64.178C1859.53 64.8602 1859.83 65.3805 1860.22 65.7389C1860.61 66.0972 1861.07 66.2764 1861.61 66.2764ZM1870.54 67.1447C1869.8 67.1447 1869.16 66.9311 1868.63 66.5038C1868.11 66.0731 1867.71 65.4512 1867.42 64.638C1867.14 63.8248 1867 62.8479 1867 61.7074C1867 60.5703 1867.14 59.5969 1867.42 58.7872C1867.71 57.974 1868.11 57.3521 1868.64 56.9213C1869.17 56.4872 1869.8 56.2701 1870.54 56.2701C1871.28 56.2701 1871.91 56.4872 1872.44 56.9213C1872.97 57.3521 1873.37 57.974 1873.65 58.7872C1873.93 59.5969 1874.07 60.5703 1874.07 61.7074C1874.07 62.8479 1873.93 63.8248 1873.65 64.638C1873.37 65.4512 1872.97 66.0731 1872.44 66.5038C1871.92 66.9311 1871.28 67.1447 1870.54 67.1447ZM1870.54 66.2764C1871.36 66.2764 1871.99 65.8784 1872.45 65.0825C1872.91 64.2831 1873.14 63.158 1873.14 61.7074C1873.14 60.7426 1873.03 59.9191 1872.82 59.2368C1872.62 58.5512 1872.32 58.0274 1871.93 57.6656C1871.54 57.3038 1871.08 57.1229 1870.54 57.1229C1869.73 57.1229 1869.09 57.5261 1868.63 58.3324C1868.17 59.1352 1867.94 60.2602 1867.94 61.7074C1867.94 62.6722 1868.04 63.4957 1868.25 64.178C1868.46 64.8602 1868.76 65.3805 1869.14 65.7389C1869.53 66.0972 1870 66.2764 1870.54 66.2764Z" fill="white"/>
<rect x="-97" y="-39" width="2017" height="153" fill="#22505F"/>
<g clip-path="url(#clip1_447_145)">
<path fill-rule="evenodd" clip-rule="evenodd" d="M113.206 57.2143H105.185C104.247 57.2143 104.069 57.2627 104.069 58.0871V58.411C104.069 58.8862 104.349 59.0084 105.032 59.1344C105.032 59.1344 110.118 60.0578 110.701 60.1567C113.738 60.7307 114.344 61.8771 114.344 64.3209V66.4158C114.344 69.5093 112.928 70.9796 108.449 70.9543C105.032 70.9543 99.4885 70.5567 99.4885 70.5567L99.5413 66.9646H107.867C109.284 66.9646 109.764 66.7144 109.764 65.667V64.9184C109.764 64.546 109.689 64.1968 109.106 64.0979C108.499 63.9718 104.652 63.2988 104.247 63.2232C100.933 62.651 99.3633 62.426 99.3633 59.309V57.7128C99.3633 54.5959 100.882 53.2246 105.361 53.2246C108.777 53.2246 113.256 53.6241 113.256 53.6241L113.206 57.2143Z" fill="white"/>
<path fill-rule="evenodd" clip-rule="evenodd" d="M122.592 63.0962H126.918L125.122 56.8643H124.388L122.592 63.0962ZM127.932 66.8609H121.603L120.439 70.8254H115.43C115.43 70.8254 120.492 55.1167 120.846 54.0694C121.048 53.3963 121.124 53.3711 122.034 53.3711H127.501C128.413 53.3711 128.487 53.3963 128.689 54.0694C129.02 55.1167 134.08 70.8254 134.08 70.8254H129.094L127.932 66.8609Z" fill="white"/>
<path d="M136.2 53.376H140.781V70.8303H136.2V53.376Z" fill="white"/>
<path d="M148.801 62.0489V57.0622H153.229C154.546 57.0622 155.053 57.6848 155.053 58.8078V60.3051C155.053 61.401 154.546 62.0489 153.229 62.0489H148.801ZM154.656 53.373H144.222V70.8255H148.801V65.7399H154.47C157.887 65.7399 159.634 63.7945 159.634 61.2012V57.8845C159.634 55.3378 157.949 53.4409 154.656 53.373Z" fill="white"/>
<path d="M175.875 53.3711H162.434V70.8254H175.847V66.9114H167.019V63.8933H174.533V60.1034H167.019V57.0621H175.875V53.3711Z" fill="white"/>
<path d="M199.399 53.3711H193.607C193.352 53.3711 193.302 53.596 193.302 53.596L189.331 63.969H189.128L185.155 53.596C185.155 53.596 185.103 53.3711 184.852 53.3711H179.057V70.8254H183.637V61.3506H183.888L187.003 70.5016C187.003 70.5016 187.079 70.8254 187.406 70.8254H191.074C191.38 70.8254 191.454 70.5016 191.454 70.5016L194.567 61.3506H194.82V70.8254H199.399V53.3711Z" fill="white"/>
<path d="M44.7715 55.0039V63.6486L74.5557 69.3278V60.683L44.7715 55.0039Z" fill="#E98300"/>
<path d="M41.874 75.1933H33V88.3283H58.3521V79.5438H41.874V75.1933ZM77.376 61.2127V79.4857L60.9742 79.5438V88.3283H86.3263V62.9293L77.376 61.2127ZM58.3521 36H33V61.3951L41.874 63.0844V44.7107H58.3521V36ZM86.3263 36H60.9742V44.7107H77.376V49.0651H86.3263V36Z" fill="white"/>
</g>
</g>
<defs>
<clipPath id="clip0_447_145">
<rect width="1920" height="1080" fill="white"/>
</clipPath>
<clipPath id="clip1_447_145">
<rect width="167" height="51" fill="white" transform="translate(33 36)"/>
</clipPath>
</defs>
</svg>
