<svg width="1920" height="1080" viewBox="0 0 1920 1080" fill="none" xmlns="http://www.w3.org/2000/svg">
<g clip-path="url(#clip0_629_97)">
<rect width="1920" height="1080" fill="white"/>
<rect width="2017" height="132" fill="#22505F"/>
<g clip-path="url(#clip1_629_97)">
<path fill-rule="evenodd" clip-rule="evenodd" d="M113.206 57.2143H105.185C104.247 57.2143 104.069 57.2627 104.069 58.0871V58.411C104.069 58.8862 104.349 59.0084 105.032 59.1344C105.032 59.1344 110.118 60.0578 110.701 60.1567C113.738 60.7307 114.344 61.8771 114.344 64.3209V66.4158C114.344 69.5093 112.928 70.9796 108.449 70.9543C105.032 70.9543 99.4885 70.5567 99.4885 70.5567L99.5413 66.9646H107.867C109.284 66.9646 109.764 66.7144 109.764 65.667V64.9184C109.764 64.546 109.689 64.1968 109.106 64.0979C108.499 63.9718 104.652 63.2988 104.247 63.2232C100.933 62.651 99.3633 62.426 99.3633 59.309V57.7128C99.3633 54.5959 100.882 53.2246 105.361 53.2246C108.777 53.2246 113.256 53.6241 113.256 53.6241L113.206 57.2143Z" fill="white"/>
<path fill-rule="evenodd" clip-rule="evenodd" d="M122.592 63.0962H126.918L125.122 56.8643H124.388L122.592 63.0962ZM127.932 66.8609H121.603L120.439 70.8254H115.43C115.43 70.8254 120.492 55.1167 120.846 54.0694C121.048 53.3963 121.124 53.3711 122.034 53.3711H127.501C128.413 53.3711 128.487 53.3963 128.689 54.0694C129.02 55.1167 134.08 70.8254 134.08 70.8254H129.094L127.932 66.8609Z" fill="white"/>
<path d="M136.2 53.376H140.781V70.8303H136.2V53.376Z" fill="white"/>
<path d="M148.801 62.0489V57.0622H153.229C154.546 57.0622 155.053 57.6848 155.053 58.8078V60.3051C155.053 61.401 154.546 62.0489 153.229 62.0489H148.801ZM154.656 53.373H144.222V70.8255H148.801V65.7399H154.47C157.887 65.7399 159.634 63.7945 159.634 61.2012V57.8845C159.634 55.3378 157.949 53.4409 154.656 53.373Z" fill="white"/>
<path d="M175.875 53.3711H162.434V70.8254H175.847V66.9114H167.019V63.8933H174.533V60.1034H167.019V57.0621H175.875V53.3711Z" fill="white"/>
<path d="M199.399 53.3711H193.607C193.352 53.3711 193.302 53.596 193.302 53.596L189.331 63.969H189.128L185.155 53.596C185.155 53.596 185.103 53.3711 184.852 53.3711H179.057V70.8254H183.637V61.3506H183.888L187.003 70.5016C187.003 70.5016 187.079 70.8254 187.406 70.8254H191.074C191.38 70.8254 191.454 70.5016 191.454 70.5016L194.567 61.3506H194.82V70.8254H199.399V53.3711Z" fill="white"/>
<path d="M44.7715 55.0039V63.6486L74.5557 69.3278V60.683L44.7715 55.0039Z" fill="#E98300"/>
<path d="M41.874 75.1933H33V88.3283H58.3521V79.5438H41.874V75.1933ZM77.376 61.2127V79.4857L60.9742 79.5438V88.3283H86.3263V62.9293L77.376 61.2127ZM58.3521 36H33V61.3951L41.874 63.0844V44.7107H58.3521V36ZM86.3263 36H60.9742V44.7107H77.376V49.0651H86.3263V36Z" fill="white"/>
</g>
<rect x="259.5" y="174.5" width="217.91" height="109" rx="11.5" fill="#FDD086" fill-opacity="0.23" stroke="#22505F"/>
<path d="M73.743 186H71.3461L74.9983 175.421H77.8808L81.5278 186H79.1309L76.4808 177.838H76.3982L73.743 186ZM73.5932 181.842H79.2548V183.588H73.5932V181.842ZM91.65 175.421V186H89.718L85.1154 179.341H85.0379V186H82.8011V175.421H84.7641L89.3306 182.074H89.4236V175.421H91.65ZM95.3216 186H92.9247L96.5768 175.421H99.4593L103.106 186H100.709L98.0594 177.838H97.9768L95.3216 186ZM95.1718 181.842H100.833V183.588H95.1718V181.842ZM104.38 186V175.421H106.616V184.156H111.152V186H104.38ZM114.87 175.421V186H112.633V175.421H114.87ZM122.449 178.463C122.408 178.046 122.231 177.723 121.917 177.492C121.604 177.261 121.179 177.146 120.641 177.146C120.276 177.146 119.968 177.198 119.717 177.301C119.465 177.401 119.272 177.54 119.138 177.719C119.007 177.898 118.942 178.102 118.942 178.329C118.935 178.518 118.975 178.684 119.061 178.825C119.15 178.966 119.272 179.088 119.427 179.192C119.582 179.291 119.762 179.379 119.965 179.455C120.168 179.527 120.385 179.589 120.616 179.641L121.566 179.868C122.028 179.972 122.451 180.109 122.837 180.282C123.223 180.454 123.557 180.666 123.839 180.917C124.121 181.168 124.34 181.464 124.495 181.805C124.653 182.146 124.734 182.537 124.738 182.978C124.734 183.625 124.569 184.187 124.242 184.662C123.918 185.134 123.45 185.501 122.837 185.762C122.227 186.021 121.492 186.15 120.631 186.15C119.777 186.15 119.033 186.019 118.399 185.757C117.769 185.495 117.277 185.108 116.922 184.595C116.571 184.078 116.387 183.44 116.369 182.678H118.534C118.558 183.033 118.659 183.329 118.839 183.567C119.021 183.801 119.264 183.978 119.567 184.099C119.873 184.216 120.22 184.275 120.605 184.275C120.984 184.275 121.313 184.22 121.592 184.109C121.874 183.999 122.093 183.846 122.248 183.65C122.403 183.453 122.48 183.228 122.48 182.973C122.48 182.735 122.41 182.536 122.269 182.374C122.131 182.212 121.928 182.074 121.659 181.96C121.394 181.847 121.068 181.743 120.683 181.65L119.531 181.361C118.639 181.144 117.935 180.805 117.418 180.344C116.901 179.882 116.645 179.26 116.648 178.479C116.645 177.838 116.815 177.279 117.16 176.8C117.508 176.321 117.985 175.947 118.591 175.679C119.197 175.41 119.886 175.276 120.657 175.276C121.442 175.276 122.127 175.41 122.713 175.679C123.302 175.947 123.76 176.321 124.087 176.8C124.414 177.279 124.583 177.833 124.593 178.463H122.449ZM128.479 175.421V186H126.242V175.421H128.479ZM137.437 186H133.686V175.421H137.468C138.532 175.421 139.448 175.632 140.216 176.056C140.984 176.476 141.574 177.08 141.988 177.869C142.404 178.658 142.613 179.601 142.613 180.7C142.613 181.802 142.404 182.749 141.988 183.541C141.574 184.333 140.98 184.941 140.205 185.365C139.434 185.788 138.511 186 137.437 186ZM135.923 184.084H137.344C138.005 184.084 138.561 183.966 139.012 183.732C139.467 183.495 139.808 183.128 140.035 182.632C140.266 182.133 140.381 181.489 140.381 180.7C140.381 179.918 140.266 179.279 140.035 178.783C139.808 178.288 139.468 177.923 139.017 177.688C138.566 177.454 138.01 177.337 137.349 177.337H135.923V184.084ZM146.506 175.421V186H144.269V175.421H146.506ZM151.713 186V175.421H155.887C156.686 175.421 157.368 175.563 157.933 175.849C158.501 176.132 158.933 176.533 159.229 177.053C159.529 177.57 159.679 178.177 159.679 178.876C159.679 179.579 159.527 180.183 159.224 180.69C158.921 181.192 158.482 181.578 157.907 181.847C157.335 182.115 156.643 182.25 155.83 182.25H153.036V180.452H155.469C155.896 180.452 156.251 180.393 156.533 180.276C156.815 180.159 157.025 179.984 157.163 179.749C157.304 179.515 157.375 179.224 157.375 178.876C157.375 178.525 157.304 178.229 157.163 177.988C157.025 177.747 156.814 177.564 156.528 177.44C156.245 177.313 155.889 177.249 155.458 177.249H153.95V186H151.713ZM157.427 181.186L160.056 186H157.587L155.014 181.186H157.427ZM163.496 175.421V186H161.26V175.421H163.496ZM171.076 178.463C171.034 178.046 170.857 177.723 170.544 177.492C170.23 177.261 169.805 177.146 169.268 177.146C168.903 177.146 168.595 177.198 168.343 177.301C168.092 177.401 167.899 177.54 167.765 177.719C167.634 177.898 167.568 178.102 167.568 178.329C167.561 178.518 167.601 178.684 167.687 178.825C167.777 178.966 167.899 179.088 168.054 179.192C168.209 179.291 168.388 179.379 168.591 179.455C168.794 179.527 169.011 179.589 169.242 179.641L170.192 179.868C170.654 179.972 171.077 180.109 171.463 180.282C171.849 180.454 172.183 180.666 172.465 180.917C172.748 181.168 172.966 181.464 173.121 181.805C173.28 182.146 173.361 182.537 173.364 182.978C173.361 183.625 173.195 184.187 172.868 184.662C172.545 185.134 172.076 185.501 171.463 185.762C170.854 186.021 170.118 186.15 169.257 186.15C168.403 186.15 167.66 186.019 167.026 185.757C166.396 185.495 165.903 185.108 165.548 184.595C165.197 184.078 165.013 183.44 164.996 182.678H167.16C167.184 183.033 167.286 183.329 167.465 183.567C167.647 183.801 167.89 183.978 168.193 184.099C168.5 184.216 168.846 184.275 169.232 184.275C169.61 184.275 169.939 184.22 170.218 184.109C170.501 183.999 170.719 183.846 170.874 183.65C171.029 183.453 171.107 183.228 171.107 182.973C171.107 182.735 171.036 182.536 170.895 182.374C170.757 182.212 170.554 182.074 170.285 181.96C170.02 181.847 169.695 181.743 169.309 181.65L168.157 181.361C167.265 181.144 166.561 180.805 166.044 180.344C165.528 179.882 165.271 179.26 165.275 178.479C165.271 177.838 165.442 177.279 165.786 176.8C166.134 176.321 166.611 175.947 167.217 175.679C167.823 175.41 168.512 175.276 169.283 175.276C170.068 175.276 170.754 175.41 171.339 175.679C171.928 175.947 172.386 176.321 172.713 176.8C173.04 177.279 173.209 177.833 173.22 178.463H171.076ZM184.203 179.124H181.941C181.899 178.832 181.815 178.572 181.687 178.344C181.56 178.114 181.396 177.917 181.197 177.755C180.997 177.594 180.766 177.47 180.505 177.384C180.246 177.297 179.966 177.254 179.663 177.254C179.115 177.254 178.638 177.39 178.232 177.663C177.825 177.931 177.51 178.324 177.286 178.84C177.062 179.353 176.951 179.977 176.951 180.71C176.951 181.464 177.062 182.098 177.286 182.611C177.514 183.124 177.83 183.512 178.237 183.774C178.643 184.035 179.113 184.166 179.647 184.166C179.947 184.166 180.224 184.127 180.479 184.047C180.737 183.968 180.966 183.853 181.166 183.701C181.365 183.546 181.531 183.359 181.662 183.138C181.796 182.918 181.889 182.666 181.941 182.384L184.203 182.394C184.145 182.88 183.998 183.348 183.764 183.799C183.533 184.247 183.222 184.648 182.829 185.003C182.44 185.354 181.975 185.633 181.434 185.84C180.897 186.043 180.289 186.145 179.611 186.145C178.667 186.145 177.824 185.931 177.08 185.504C176.339 185.077 175.754 184.459 175.323 183.65C174.896 182.84 174.683 181.861 174.683 180.71C174.683 179.557 174.9 178.575 175.334 177.766C175.768 176.957 176.356 176.34 177.1 175.916C177.844 175.489 178.681 175.276 179.611 175.276C180.224 175.276 180.792 175.362 181.316 175.534C181.842 175.706 182.309 175.958 182.715 176.288C183.122 176.616 183.452 177.017 183.707 177.492C183.966 177.967 184.131 178.511 184.203 179.124ZM185.807 186V175.421H188.044V179.786H192.585V175.421H194.816V186H192.585V181.63H188.044V186H185.807ZM198.897 175.421V186H196.66V175.421H198.897ZM210.459 180.71C210.459 181.864 210.241 182.845 209.803 183.655C209.369 184.464 208.777 185.082 208.026 185.509C207.279 185.933 206.439 186.145 205.505 186.145C204.565 186.145 203.722 185.931 202.974 185.504C202.227 185.077 201.636 184.459 201.202 183.65C200.768 182.84 200.551 181.861 200.551 180.71C200.551 179.557 200.768 178.575 201.202 177.766C201.636 176.957 202.227 176.34 202.974 175.916C203.722 175.489 204.565 175.276 205.505 175.276C206.439 175.276 207.279 175.489 208.026 175.916C208.777 176.34 209.369 176.957 209.803 177.766C210.241 178.575 210.459 179.557 210.459 180.71ZM208.192 180.71C208.192 179.963 208.08 179.333 207.856 178.82C207.635 178.306 207.324 177.917 206.921 177.652C206.518 177.387 206.046 177.254 205.505 177.254C204.965 177.254 204.493 177.387 204.09 177.652C203.687 177.917 203.374 178.306 203.15 178.82C202.929 179.333 202.819 179.963 202.819 180.71C202.819 181.458 202.929 182.088 203.15 182.601C203.374 183.114 203.687 183.503 204.09 183.768C204.493 184.034 204.965 184.166 205.505 184.166C206.046 184.166 206.518 184.034 206.921 183.768C207.324 183.503 207.635 183.114 207.856 182.601C208.08 182.088 208.192 181.458 208.192 180.71ZM75.2863 204V193.421H77.523V198.085H77.6625L81.4697 193.421H84.1507L80.2247 198.158L84.1972 204H81.5213L78.6233 199.65L77.523 200.994V204H75.2863ZM94.0534 197.124H91.7908C91.7495 196.832 91.6651 196.572 91.5377 196.344C91.4102 196.114 91.2467 195.917 91.0469 195.755C90.8472 195.594 90.6164 195.47 90.3547 195.384C90.0964 195.297 89.8158 195.254 89.5127 195.254C88.9651 195.254 88.4882 195.39 88.0818 195.663C87.6754 195.931 87.3603 196.324 87.1365 196.84C86.9126 197.353 86.8007 197.977 86.8007 198.71C86.8007 199.464 86.9126 200.098 87.1365 200.611C87.3638 201.124 87.6806 201.512 88.087 201.774C88.4933 202.035 88.9634 202.166 89.4972 202.166C89.7968 202.166 90.074 202.127 90.3289 202.047C90.5872 201.968 90.8162 201.853 91.0159 201.701C91.2157 201.546 91.381 201.359 91.5118 201.138C91.6462 200.918 91.7391 200.666 91.7908 200.384L94.0534 200.394C93.9948 200.88 93.8485 201.348 93.6143 201.799C93.3836 202.247 93.0719 202.648 92.6793 203.003C92.2901 203.354 91.8252 203.633 91.2845 203.84C90.7473 204.043 90.1395 204.145 89.461 204.145C88.5174 204.145 87.6737 203.931 86.9298 203.504C86.1894 203.077 85.604 202.459 85.1735 201.65C84.7465 200.84 84.5329 199.861 84.5329 198.71C84.5329 197.557 84.7499 196.575 85.1838 195.766C85.6177 194.957 86.2066 194.34 86.9505 193.916C87.6944 193.489 88.5312 193.276 89.461 193.276C90.074 193.276 90.6423 193.362 91.1657 193.534C91.6926 193.706 92.1593 193.958 92.5657 194.288C92.972 194.616 93.3026 195.017 93.5575 195.492C93.8158 195.967 93.9811 196.511 94.0534 197.124ZM97.8941 193.421V204H95.6573V193.421H97.8941ZM104.275 193.421V204H102.038V195.544H101.976L99.5536 197.062V195.079L102.173 193.421H104.275Z" fill="#2B495A"/>
<path d="M45.125 196.666H47.875V188.666H45.125V196.666ZM46.5 185.999C46.8896 185.999 47.2164 185.871 47.4804 185.615C47.7444 185.359 47.8759 185.043 47.875 184.666C47.8741 184.289 47.7421 183.973 47.479 183.717C47.2159 183.461 46.8896 183.333 46.5 183.333C46.1104 183.333 45.7841 183.461 45.521 183.717C45.2579 183.973 45.1259 184.289 45.125 184.666C45.1241 185.043 45.2561 185.36 45.521 185.617C45.7859 185.874 46.1123 186.001 46.5 185.999ZM46.5 203.333C44.5979 203.333 42.8104 202.982 41.1375 202.282C39.4646 201.582 38.0094 200.632 36.7719 199.433C35.5344 198.234 34.5549 196.822 33.8335 195.199C33.1121 193.576 32.7509 191.843 32.75 189.999C32.7491 188.156 33.1103 186.422 33.8335 184.799C34.5568 183.176 35.5362 181.765 36.7719 180.566C38.0075 179.367 39.4628 178.417 41.1375 177.717C42.8123 177.016 44.5998 176.666 46.5 176.666C48.4003 176.666 50.1877 177.016 51.8625 177.717C53.5373 178.417 54.9925 179.367 56.2281 180.566C57.4638 181.765 58.4437 183.176 59.1679 184.799C59.892 186.422 60.2528 188.156 60.25 189.999C60.2473 191.843 59.8861 193.576 59.1665 195.199C58.4469 196.822 57.4675 198.234 56.2281 199.433C54.9888 200.632 53.5336 201.582 51.8625 202.283C50.1914 202.985 48.4039 203.334 46.5 203.333ZM46.5 200.666C49.5708 200.666 52.1719 199.633 54.3031 197.566C56.4344 195.499 57.5 192.977 57.5 189.999C57.5 187.022 56.4344 184.499 54.3031 182.433C52.1719 180.366 49.5708 179.333 46.5 179.333C43.4292 179.333 40.8281 180.366 38.6969 182.433C36.5656 184.499 35.5 187.022 35.5 189.999C35.5 192.977 36.5656 195.499 38.6969 197.566C40.8281 199.633 43.4292 200.666 46.5 200.666Z" fill="#2B495A"/>
</g>
<rect x="0.5" y="0.5" width="1919" height="1079" stroke="black"/>
<defs>
<clipPath id="clip0_629_97">
<rect width="1920" height="1080" fill="white"/>
</clipPath>
<clipPath id="clip1_629_97">
<rect width="167" height="51" fill="white" transform="translate(33 36)"/>
</clipPath>
</defs>
</svg>
