<svg width="1920" height="1080" viewBox="0 0 1920 1080" fill="none" xmlns="http://www.w3.org/2000/svg">
<g clip-path="url(#clip0_629_97)">
<rect width="1920" height="1080" fill="white"/>
<rect width="2017" height="132" fill="#22505F"/>
<g clip-path="url(#clip1_629_97)">
<path fill-rule="evenodd" clip-rule="evenodd" d="M113.206 57.2143H105.185C104.247 57.2143 104.069 57.2627 104.069 58.0871V58.411C104.069 58.8862 104.349 59.0084 105.032 59.1344C105.032 59.1344 110.118 60.0578 110.701 60.1567C113.738 60.7307 114.344 61.8771 114.344 64.3209V66.4158C114.344 69.5093 112.928 70.9796 108.449 70.9543C105.032 70.9543 99.4885 70.5567 99.4885 70.5567L99.5413 66.9646H107.867C109.284 66.9646 109.764 66.7144 109.764 65.667V64.9184C109.764 64.546 109.689 64.1968 109.106 64.0979C108.499 63.9718 104.652 63.2988 104.247 63.2232C100.933 62.651 99.3633 62.426 99.3633 59.309V57.7128C99.3633 54.5959 100.882 53.2246 105.361 53.2246C108.777 53.2246 113.256 53.6241 113.256 53.6241L113.206 57.2143Z" fill="white"/>
<path fill-rule="evenodd" clip-rule="evenodd" d="M122.592 63.0962H126.918L125.122 56.8643H124.388L122.592 63.0962ZM127.932 66.8609H121.603L120.439 70.8254H115.43C115.43 70.8254 120.492 55.1167 120.846 54.0694C121.048 53.3963 121.124 53.3711 122.034 53.3711H127.501C128.413 53.3711 128.487 53.3963 128.689 54.0694C129.02 55.1167 134.08 70.8254 134.08 70.8254H129.094L127.932 66.8609Z" fill="white"/>
<path d="M136.2 53.376H140.781V70.8303H136.2V53.376Z" fill="white"/>
<path d="M148.801 62.0489V57.0622H153.229C154.546 57.0622 155.053 57.6848 155.053 58.8078V60.3051C155.053 61.401 154.546 62.0489 153.229 62.0489H148.801ZM154.656 53.373H144.222V70.8255H148.801V65.7399H154.47C157.887 65.7399 159.634 63.7945 159.634 61.2012V57.8845C159.634 55.3378 157.949 53.4409 154.656 53.373Z" fill="white"/>
<path d="M175.875 53.3711H162.434V70.8254H175.847V66.9114H167.019V63.8933H174.533V60.1034H167.019V57.0621H175.875V53.3711Z" fill="white"/>
<path d="M199.399 53.3711H193.607C193.352 53.3711 193.302 53.596 193.302 53.596L189.331 63.969H189.128L185.155 53.596C185.155 53.596 185.103 53.3711 184.852 53.3711H179.057V70.8254H183.637V61.3506H183.888L187.003 70.5016C187.003 70.5016 187.079 70.8254 187.406 70.8254H191.074C191.38 70.8254 191.454 70.5016 191.454 70.5016L194.567 61.3506H194.82V70.8254H199.399V53.3711Z" fill="white"/>
<path d="M44.7715 55.0039V63.6486L74.5557 69.3278V60.683L44.7715 55.0039Z" fill="#E98300"/>
<path d="M41.874 75.1933H33V88.3283H58.3521V79.5438H41.874V75.1933ZM77.376 61.2127V79.4857L60.9742 79.5438V88.3283H86.3263V62.9293L77.376 61.2127ZM58.3521 36H33V61.3951L41.874 63.0844V44.7107H58.3521V36ZM86.3263 36H60.9742V44.7107H77.376V49.0651H86.3263V36Z" fill="white"/>
</g>
<rect x="259.5" y="174.5" width="217.91" height="109" rx="11.5" fill="#FDD086" fill-opacity="0.23" stroke="#22505F"/>
<path d="M73.743 188H71.3461L74.9983 177.421H77.8808L81.5278 188H79.1309L76.4808 179.838H76.3982L73.743 188ZM73.5932 183.842H79.2548V185.588H73.5932V183.842ZM91.65 177.421V188H89.718L85.1154 181.341H85.0379V188H82.8011V177.421H84.7641L89.3306 184.074H89.4236V177.421H91.65ZM95.3216 188H92.9247L96.5768 177.421H99.4593L103.106 188H100.709L98.0594 179.838H97.9768L95.3216 188ZM95.1718 183.842H100.833V185.588H95.1718V183.842ZM104.38 188V177.421H106.616V186.156H111.152V188H104.38ZM114.87 177.421V188H112.633V177.421H114.87ZM122.449 180.463C122.408 180.046 122.231 179.723 121.917 179.492C121.604 179.261 121.179 179.146 120.641 179.146C120.276 179.146 119.968 179.198 119.717 179.301C119.465 179.401 119.272 179.54 119.138 179.719C119.007 179.898 118.942 180.102 118.942 180.329C118.935 180.518 118.975 180.684 119.061 180.825C119.15 180.966 119.272 181.088 119.427 181.192C119.582 181.291 119.762 181.379 119.965 181.455C120.168 181.527 120.385 181.589 120.616 181.641L121.566 181.868C122.028 181.972 122.451 182.109 122.837 182.282C123.223 182.454 123.557 182.666 123.839 182.917C124.121 183.168 124.34 183.464 124.495 183.805C124.653 184.146 124.734 184.537 124.738 184.978C124.734 185.625 124.569 186.187 124.242 186.662C123.918 187.134 123.45 187.501 122.837 187.762C122.227 188.021 121.492 188.15 120.631 188.15C119.777 188.15 119.033 188.019 118.399 187.757C117.769 187.495 117.277 187.108 116.922 186.595C116.571 186.078 116.387 185.44 116.369 184.678H118.534C118.558 185.033 118.659 185.329 118.839 185.567C119.021 185.801 119.264 185.978 119.567 186.099C119.873 186.216 120.22 186.275 120.605 186.275C120.984 186.275 121.313 186.22 121.592 186.109C121.874 185.999 122.093 185.846 122.248 185.65C122.403 185.453 122.48 185.228 122.48 184.973C122.48 184.735 122.41 184.536 122.269 184.374C122.131 184.212 121.928 184.074 121.659 183.96C121.394 183.847 121.068 183.743 120.683 183.65L119.531 183.361C118.639 183.144 117.935 182.805 117.418 182.344C116.901 181.882 116.645 181.26 116.648 180.479C116.645 179.838 116.815 179.279 117.16 178.8C117.508 178.321 117.985 177.947 118.591 177.679C119.197 177.41 119.886 177.276 120.657 177.276C121.442 177.276 122.127 177.41 122.713 177.679C123.302 177.947 123.76 178.321 124.087 178.8C124.414 179.279 124.583 179.833 124.593 180.463H122.449ZM128.479 177.421V188H126.242V177.421H128.479ZM137.437 188H133.686V177.421H137.468C138.532 177.421 139.448 177.632 140.216 178.056C140.984 178.476 141.574 179.08 141.988 179.869C142.404 180.658 142.613 181.601 142.613 182.7C142.613 183.802 142.404 184.749 141.988 185.541C141.574 186.333 140.98 186.941 140.205 187.365C139.434 187.788 138.511 188 137.437 188ZM135.923 186.084H137.344C138.005 186.084 138.561 185.966 139.012 185.732C139.467 185.495 139.808 185.128 140.035 184.632C140.266 184.133 140.381 183.489 140.381 182.7C140.381 181.918 140.266 181.279 140.035 180.783C139.808 180.288 139.468 179.923 139.017 179.688C138.566 179.454 138.01 179.337 137.349 179.337H135.923V186.084ZM146.506 177.421V188H144.269V177.421H146.506ZM151.713 188V177.421H155.887C156.686 177.421 157.368 177.563 157.933 177.849C158.501 178.132 158.933 178.533 159.229 179.053C159.529 179.57 159.679 180.177 159.679 180.876C159.679 181.579 159.527 182.183 159.224 182.69C158.921 183.192 158.482 183.578 157.907 183.847C157.335 184.115 156.643 184.25 155.83 184.25H153.036V182.452H155.469C155.896 182.452 156.251 182.393 156.533 182.276C156.815 182.159 157.025 181.984 157.163 181.749C157.304 181.515 157.375 181.224 157.375 180.876C157.375 180.525 157.304 180.229 157.163 179.988C157.025 179.747 156.814 179.564 156.528 179.44C156.245 179.313 155.889 179.249 155.458 179.249H153.95V188H151.713ZM157.427 183.186L160.056 188H157.587L155.014 183.186H157.427ZM163.496 177.421V188H161.26V177.421H163.496ZM171.076 180.463C171.034 180.046 170.857 179.723 170.544 179.492C170.23 179.261 169.805 179.146 169.268 179.146C168.903 179.146 168.595 179.198 168.343 179.301C168.092 179.401 167.899 179.54 167.765 179.719C167.634 179.898 167.568 180.102 167.568 180.329C167.561 180.518 167.601 180.684 167.687 180.825C167.777 180.966 167.899 181.088 168.054 181.192C168.209 181.291 168.388 181.379 168.591 181.455C168.794 181.527 169.011 181.589 169.242 181.641L170.192 181.868C170.654 181.972 171.077 182.109 171.463 182.282C171.849 182.454 172.183 182.666 172.465 182.917C172.748 183.168 172.966 183.464 173.121 183.805C173.28 184.146 173.361 184.537 173.364 184.978C173.361 185.625 173.195 186.187 172.868 186.662C172.545 187.134 172.076 187.501 171.463 187.762C170.854 188.021 170.118 188.15 169.257 188.15C168.403 188.15 167.66 188.019 167.026 187.757C166.396 187.495 165.903 187.108 165.548 186.595C165.197 186.078 165.013 185.44 164.996 184.678H167.16C167.184 185.033 167.286 185.329 167.465 185.567C167.647 185.801 167.89 185.978 168.193 186.099C168.5 186.216 168.846 186.275 169.232 186.275C169.61 186.275 169.939 186.22 170.218 186.109C170.501 185.999 170.719 185.846 170.874 185.65C171.029 185.453 171.107 185.228 171.107 184.973C171.107 184.735 171.036 184.536 170.895 184.374C170.757 184.212 170.554 184.074 170.285 183.96C170.02 183.847 169.695 183.743 169.309 183.65L168.157 183.361C167.265 183.144 166.561 182.805 166.044 182.344C165.528 181.882 165.271 181.26 165.275 180.479C165.271 179.838 165.442 179.279 165.786 178.8C166.134 178.321 166.611 177.947 167.217 177.679C167.823 177.41 168.512 177.276 169.283 177.276C170.068 177.276 170.754 177.41 171.339 177.679C171.928 177.947 172.386 178.321 172.713 178.8C173.04 179.279 173.209 179.833 173.22 180.463H171.076ZM184.203 181.124H181.941C181.899 180.832 181.815 180.572 181.687 180.344C181.56 180.114 181.396 179.917 181.197 179.755C180.997 179.594 180.766 179.47 180.505 179.384C180.246 179.297 179.966 179.254 179.663 179.254C179.115 179.254 178.638 179.39 178.232 179.663C177.825 179.931 177.51 180.324 177.286 180.84C177.062 181.353 176.951 181.977 176.951 182.71C176.951 183.464 177.062 184.098 177.286 184.611C177.514 185.124 177.83 185.512 178.237 185.774C178.643 186.035 179.113 186.166 179.647 186.166C179.947 186.166 180.224 186.127 180.479 186.047C180.737 185.968 180.966 185.853 181.166 185.701C181.365 185.546 181.531 185.359 181.662 185.138C181.796 184.918 181.889 184.666 181.941 184.384L184.203 184.394C184.145 184.88 183.998 185.348 183.764 185.799C183.533 186.247 183.222 186.648 182.829 187.003C182.44 187.354 181.975 187.633 181.434 187.84C180.897 188.043 180.289 188.145 179.611 188.145C178.667 188.145 177.824 187.931 177.08 187.504C176.339 187.077 175.754 186.459 175.323 185.65C174.896 184.84 174.683 183.861 174.683 182.71C174.683 181.557 174.9 180.575 175.334 179.766C175.768 178.957 176.356 178.34 177.1 177.916C177.844 177.489 178.681 177.276 179.611 177.276C180.224 177.276 180.792 177.362 181.316 177.534C181.842 177.706 182.309 177.958 182.715 178.288C183.122 178.616 183.452 179.017 183.707 179.492C183.966 179.967 184.131 180.511 184.203 181.124ZM185.807 188V177.421H188.044V181.786H192.585V177.421H194.816V188H192.585V183.63H188.044V188H185.807ZM198.897 177.421V188H196.66V177.421H198.897ZM210.459 182.71C210.459 183.864 210.241 184.845 209.803 185.655C209.369 186.464 208.777 187.082 208.026 187.509C207.279 187.933 206.439 188.145 205.505 188.145C204.565 188.145 203.722 187.931 202.974 187.504C202.227 187.077 201.636 186.459 201.202 185.65C200.768 184.84 200.551 183.861 200.551 182.71C200.551 181.557 200.768 180.575 201.202 179.766C201.636 178.957 202.227 178.34 202.974 177.916C203.722 177.489 204.565 177.276 205.505 177.276C206.439 177.276 207.279 177.489 208.026 177.916C208.777 178.34 209.369 178.957 209.803 179.766C210.241 180.575 210.459 181.557 210.459 182.71ZM208.192 182.71C208.192 181.963 208.08 181.333 207.856 180.82C207.635 180.306 207.324 179.917 206.921 179.652C206.518 179.387 206.046 179.254 205.505 179.254C204.965 179.254 204.493 179.387 204.09 179.652C203.687 179.917 203.374 180.306 203.15 180.82C202.929 181.333 202.819 181.963 202.819 182.71C202.819 183.458 202.929 184.088 203.15 184.601C203.374 185.114 203.687 185.503 204.09 185.768C204.493 186.034 204.965 186.166 205.505 186.166C206.046 186.166 206.518 186.034 206.921 185.768C207.324 185.503 207.635 185.114 207.856 184.601C208.08 184.088 208.192 183.458 208.192 182.71ZM75.2863 206V195.421H77.523V200.085H77.6625L81.4697 195.421H84.1507L80.2247 200.158L84.1972 206H81.5213L78.6233 201.65L77.523 202.994V206H75.2863ZM94.0534 199.124H91.7908C91.7495 198.832 91.6651 198.572 91.5377 198.344C91.4102 198.114 91.2467 197.917 91.0469 197.755C90.8472 197.594 90.6164 197.47 90.3547 197.384C90.0964 197.297 89.8158 197.254 89.5127 197.254C88.9651 197.254 88.4882 197.39 88.0818 197.663C87.6754 197.931 87.3603 198.324 87.1365 198.84C86.9126 199.353 86.8007 199.977 86.8007 200.71C86.8007 201.464 86.9126 202.098 87.1365 202.611C87.3638 203.124 87.6806 203.512 88.087 203.774C88.4933 204.035 88.9634 204.166 89.4972 204.166C89.7968 204.166 90.074 204.127 90.3289 204.047C90.5872 203.968 90.8162 203.853 91.0159 203.701C91.2157 203.546 91.381 203.359 91.5118 203.138C91.6462 202.918 91.7391 202.666 91.7908 202.384L94.0534 202.394C93.9948 202.88 93.8485 203.348 93.6143 203.799C93.3836 204.247 93.0719 204.648 92.6793 205.003C92.2901 205.354 91.8252 205.633 91.2845 205.84C90.7473 206.043 90.1395 206.145 89.461 206.145C88.5174 206.145 87.6737 205.931 86.9298 205.504C86.1894 205.077 85.604 204.459 85.1735 203.65C84.7465 202.84 84.5329 201.861 84.5329 200.71C84.5329 199.557 84.7499 198.575 85.1838 197.766C85.6177 196.957 86.2066 196.34 86.9505 195.916C87.6944 195.489 88.5312 195.276 89.461 195.276C90.074 195.276 90.6423 195.362 91.1657 195.534C91.6926 195.706 92.1593 195.958 92.5657 196.288C92.972 196.616 93.3026 197.017 93.5575 197.492C93.8158 197.967 93.9811 198.511 94.0534 199.124ZM97.8941 195.421V206H95.6573V195.421H97.8941ZM99.6724 206V204.388L103.438 200.901C103.759 200.591 104.027 200.313 104.244 200.065C104.464 199.817 104.632 199.574 104.745 199.336C104.859 199.095 104.916 198.835 104.916 198.556C104.916 198.246 104.845 197.979 104.704 197.755C104.563 197.528 104.37 197.354 104.125 197.234C103.881 197.11 103.604 197.048 103.294 197.048C102.97 197.048 102.687 197.113 102.446 197.244C102.205 197.375 102.019 197.563 101.889 197.807C101.758 198.052 101.692 198.343 101.692 198.68H99.5691C99.5691 197.988 99.7258 197.387 100.039 196.877C100.353 196.368 100.792 195.973 101.356 195.694C101.921 195.415 102.572 195.276 103.309 195.276C104.067 195.276 104.726 195.41 105.288 195.679C105.852 195.944 106.291 196.313 106.605 196.784C106.918 197.256 107.075 197.797 107.075 198.406C107.075 198.806 106.996 199.2 106.837 199.589C106.682 199.978 106.405 200.411 106.006 200.886C105.606 201.358 105.043 201.924 104.316 202.585L102.772 204.099V204.171H107.214V206H99.6724Z" fill="#2B495A"/>
<path d="M45.125 196.666H47.875V188.666H45.125V196.666ZM46.5 185.999C46.8896 185.999 47.2164 185.871 47.4804 185.615C47.7444 185.359 47.8759 185.043 47.875 184.666C47.8741 184.289 47.7421 183.973 47.479 183.717C47.2159 183.461 46.8896 183.333 46.5 183.333C46.1104 183.333 45.7841 183.461 45.521 183.717C45.2579 183.973 45.1259 184.289 45.125 184.666C45.1241 185.043 45.2561 185.36 45.521 185.617C45.7859 185.874 46.1123 186.001 46.5 185.999ZM46.5 203.333C44.5979 203.333 42.8104 202.982 41.1375 202.282C39.4646 201.582 38.0094 200.632 36.7719 199.433C35.5344 198.234 34.5549 196.822 33.8335 195.199C33.1121 193.576 32.7509 191.843 32.75 189.999C32.7491 188.156 33.1103 186.422 33.8335 184.799C34.5568 183.176 35.5362 181.765 36.7719 180.566C38.0075 179.367 39.4628 178.417 41.1375 177.717C42.8123 177.016 44.5998 176.666 46.5 176.666C48.4003 176.666 50.1877 177.016 51.8625 177.717C53.5373 178.417 54.9925 179.367 56.2281 180.566C57.4638 181.765 58.4437 183.176 59.1679 184.799C59.892 186.422 60.2528 188.156 60.25 189.999C60.2473 191.843 59.8861 193.576 59.1665 195.199C58.4469 196.822 57.4675 198.234 56.2281 199.433C54.9888 200.632 53.5336 201.582 51.8625 202.283C50.1914 202.985 48.4039 203.334 46.5 203.333ZM46.5 200.666C49.5708 200.666 52.1719 199.633 54.3031 197.566C56.4344 195.499 57.5 192.977 57.5 189.999C57.5 187.022 56.4344 184.499 54.3031 182.433C52.1719 180.366 49.5708 179.333 46.5 179.333C43.4292 179.333 40.8281 180.366 38.6969 182.433C36.5656 184.499 35.5 187.022 35.5 189.999C35.5 192.977 36.5656 195.499 38.6969 197.566C40.8281 199.633 43.4292 200.666 46.5 200.666Z" fill="#2B495A"/>
</g>
<rect x="0.5" y="0.5" width="1919" height="1079" stroke="black"/>
<defs>
<clipPath id="clip0_629_97">
<rect width="1920" height="1080" fill="white"/>
</clipPath>
<clipPath id="clip1_629_97">
<rect width="167" height="51" fill="white" transform="translate(33 36)"/>
</clipPath>
</defs>
</svg>
