<svg width="1920" height="1080" viewBox="0 0 1920 1080" fill="none" xmlns="http://www.w3.org/2000/svg">
<g clip-path="url(#clip0_649_126)">
<rect width="1920" height="1080" fill="white"/>
<rect y="-18" width="2017" height="153" fill="#22505F"/>
<g clip-path="url(#clip1_649_126)">
<path fill-rule="evenodd" clip-rule="evenodd" d="M113.206 57.2143H105.185C104.247 57.2143 104.069 57.2627 104.069 58.0871V58.411C104.069 58.8862 104.349 59.0084 105.032 59.1344C105.032 59.1344 110.118 60.0578 110.701 60.1567C113.738 60.7307 114.344 61.8771 114.344 64.3209V66.4158C114.344 69.5093 112.928 70.9796 108.449 70.9543C105.032 70.9543 99.4885 70.5567 99.4885 70.5567L99.5413 66.9646H107.867C109.284 66.9646 109.764 66.7144 109.764 65.667V64.9184C109.764 64.546 109.689 64.1968 109.106 64.0979C108.499 63.9718 104.652 63.2988 104.247 63.2232C100.933 62.651 99.3633 62.426 99.3633 59.309V57.7128C99.3633 54.5959 100.882 53.2246 105.361 53.2246C108.777 53.2246 113.256 53.6241 113.256 53.6241L113.206 57.2143Z" fill="white"/>
<path fill-rule="evenodd" clip-rule="evenodd" d="M122.592 63.0962H126.918L125.122 56.8643H124.388L122.592 63.0962ZM127.932 66.8609H121.603L120.439 70.8254H115.43C115.43 70.8254 120.492 55.1167 120.846 54.0694C121.048 53.3963 121.124 53.3711 122.034 53.3711H127.501C128.413 53.3711 128.487 53.3963 128.689 54.0694C129.02 55.1167 134.08 70.8254 134.08 70.8254H129.094L127.932 66.8609Z" fill="white"/>
<path d="M136.2 53.376H140.78V70.8303H136.2V53.376Z" fill="white"/>
<path d="M148.802 62.0489V57.0622H153.229C154.546 57.0622 155.054 57.6848 155.054 58.8078V60.3051C155.054 61.401 154.546 62.0489 153.229 62.0489H148.802ZM154.656 53.373H144.222V70.8255H148.802V65.7399H154.47C157.887 65.7399 159.634 63.7945 159.634 61.2012V57.8845C159.634 55.3378 157.949 53.4409 154.656 53.373Z" fill="white"/>
<path d="M175.875 53.3711H162.434V70.8254H175.847V66.9114H167.019V63.8933H174.533V60.1034H167.019V57.0621H175.875V53.3711Z" fill="white"/>
<path d="M199.399 53.3711H193.607C193.352 53.3711 193.302 53.596 193.302 53.596L189.331 63.969H189.128L185.155 53.596C185.155 53.596 185.103 53.3711 184.852 53.3711H179.057V70.8254H183.637V61.3506H183.888L187.003 70.5016C187.003 70.5016 187.079 70.8254 187.406 70.8254H191.074C191.38 70.8254 191.454 70.5016 191.454 70.5016L194.567 61.3506H194.82V70.8254H199.399V53.3711Z" fill="white"/>
<path d="M44.7715 55.0039V63.6486L74.5557 69.3278V60.683L44.7715 55.0039Z" fill="#E98300"/>
<path d="M41.874 75.1933H33V88.3283H58.3521V79.5438H41.874V75.1933ZM77.376 61.2127V79.4857L60.9742 79.5438V88.3283H86.3263V62.9293L77.376 61.2127ZM58.3521 36H33V61.3951L41.874 63.0844V44.7107H58.3521V36ZM86.3263 36H60.9742V44.7107H77.376V49.0651H86.3263V36Z" fill="white"/>
</g>
<rect x="259.5" y="174.5" width="217.91" height="109" rx="11.5" fill="#FDD086" fill-opacity="0.23" stroke="#22505F"/>
<path d="M77.6586 178.463C77.6173 178.046 77.4399 177.723 77.1266 177.492C76.8132 177.261 76.3879 177.146 75.8506 177.146C75.4856 177.146 75.1774 177.198 74.926 177.301C74.6746 177.401 74.4817 177.54 74.3474 177.719C74.2165 177.898 74.1511 178.102 74.1511 178.329C74.1442 178.518 74.1838 178.684 74.2699 178.825C74.3594 178.966 74.4817 179.088 74.6367 179.192C74.7916 179.291 74.9707 179.379 75.1739 179.455C75.3771 179.527 75.5941 179.589 75.8248 179.641L76.7753 179.868C77.2368 179.972 77.6604 180.109 78.0461 180.282C78.4318 180.454 78.7658 180.666 79.0482 180.917C79.3306 181.168 79.5493 181.464 79.7043 181.805C79.8627 182.146 79.9436 182.537 79.9471 182.978C79.9436 183.625 79.7783 184.187 79.4511 184.662C79.1274 185.134 78.6591 185.501 78.0461 185.762C77.4365 186.021 76.7012 186.15 75.8403 186.15C74.9862 186.15 74.2424 186.019 73.6087 185.757C72.9785 185.495 72.486 185.108 72.1313 184.595C71.78 184.078 71.5958 183.44 71.5786 182.678H73.743C73.7671 183.033 73.8687 183.329 74.0478 183.567C74.2303 183.801 74.4731 183.978 74.7762 184.099C75.0827 184.216 75.4288 184.275 75.8145 184.275C76.1933 184.275 76.5222 184.22 76.8011 184.109C77.0835 183.999 77.3022 183.846 77.4572 183.65C77.6121 183.453 77.6896 183.228 77.6896 182.973C77.6896 182.735 77.619 182.536 77.4778 182.374C77.3401 182.212 77.1369 182.074 76.8683 181.96C76.6031 181.847 76.2777 181.743 75.892 181.65L74.74 181.361C73.848 181.144 73.1438 180.805 72.6272 180.344C72.1106 179.882 71.8541 179.26 71.8575 178.479C71.8541 177.838 72.0245 177.279 72.3689 176.8C72.7167 176.321 73.1937 175.947 73.7998 175.679C74.4059 175.41 75.0947 175.276 75.8661 175.276C76.6513 175.276 77.3366 175.41 77.9221 175.679C78.511 175.947 78.969 176.321 79.2962 176.8C79.6233 177.279 79.7921 177.833 79.8024 178.463H77.6586ZM81.0486 177.265V175.421H89.7374V177.265H86.4985V186H84.2876V177.265H81.0486ZM93.4051 175.421V186H91.1683V175.421H93.4051ZM95.2454 175.421H98.0039L100.917 182.529H101.041L103.955 175.421H106.713V186H104.544V179.114H104.456L101.718 185.948H100.241L97.5028 179.088H97.415V186H95.2454V175.421ZM110.38 186H107.983L111.635 175.421H114.517L118.164 186H115.768L113.118 177.838H113.035L110.38 186ZM110.23 181.842H115.892V183.588H110.23V181.842ZM126.555 186H122.805V175.421H126.586C127.65 175.421 128.566 175.632 129.334 176.056C130.102 176.476 130.693 177.08 131.106 177.869C131.523 178.658 131.731 179.601 131.731 180.7C131.731 181.802 131.523 182.749 131.106 183.541C130.693 184.333 130.099 184.941 129.324 185.365C128.552 185.788 127.629 186 126.555 186ZM125.041 184.084H126.462C127.123 184.084 127.679 183.966 128.13 183.732C128.585 183.495 128.926 183.128 129.153 182.632C129.384 182.133 129.499 181.489 129.499 180.7C129.499 179.918 129.384 179.279 129.153 178.783C128.926 178.288 128.587 177.923 128.136 177.688C127.684 177.454 127.128 177.337 126.467 177.337H125.041V184.084ZM133.388 186V175.421H140.517V177.265H135.625V179.786H140.15V181.63H135.625V184.156H140.537V186H133.388ZM144.532 175.421V186H142.295V175.421H144.532ZM149.739 186V175.421H153.913C154.712 175.421 155.393 175.563 155.958 175.849C156.526 176.132 156.959 176.533 157.255 177.053C157.554 177.57 157.704 178.177 157.704 178.876C157.704 179.579 157.553 180.183 157.25 180.69C156.947 181.192 156.508 181.578 155.932 181.847C155.361 182.115 154.669 182.25 153.856 182.25H151.061V180.452H153.494C153.921 180.452 154.276 180.393 154.558 180.276C154.841 180.159 155.051 179.984 155.189 179.749C155.33 179.515 155.4 179.224 155.4 178.876C155.4 178.525 155.33 178.229 155.189 177.988C155.051 177.747 154.839 177.564 154.553 177.44C154.271 177.313 153.914 177.249 153.484 177.249H151.975V186H149.739ZM155.452 181.186L158.081 186H155.612L153.04 181.186H155.452ZM161.522 175.421V186H159.285V175.421H161.522ZM172.697 179.124H170.434C170.393 178.832 170.308 178.572 170.181 178.344C170.053 178.114 169.89 177.917 169.69 177.755C169.49 177.594 169.26 177.47 168.998 177.384C168.74 177.297 168.459 177.254 168.156 177.254C167.608 177.254 167.131 177.39 166.725 177.663C166.319 177.931 166.003 178.324 165.78 178.84C165.556 179.353 165.444 179.977 165.444 180.71C165.444 181.464 165.556 182.098 165.78 182.611C166.007 183.124 166.324 183.512 166.73 183.774C167.136 184.035 167.607 184.166 168.14 184.166C168.44 184.166 168.717 184.127 168.972 184.047C169.23 183.968 169.459 183.853 169.659 183.701C169.859 183.546 170.024 183.359 170.155 183.138C170.289 182.918 170.382 182.666 170.434 182.384L172.697 182.394C172.638 182.88 172.492 183.348 172.257 183.799C172.027 184.247 171.715 184.648 171.322 185.003C170.933 185.354 170.468 185.633 169.928 185.84C169.39 186.043 168.783 186.145 168.104 186.145C167.161 186.145 166.317 185.931 165.573 185.504C164.833 185.077 164.247 184.459 163.817 183.65C163.39 182.84 163.176 181.861 163.176 180.71C163.176 179.557 163.393 178.575 163.827 177.766C164.261 176.957 164.85 176.34 165.594 175.916C166.338 175.489 167.174 175.276 168.104 175.276C168.717 175.276 169.285 175.362 169.809 175.534C170.336 175.706 170.802 175.958 171.209 176.288C171.615 176.616 171.946 177.017 172.201 177.492C172.459 177.967 172.624 178.511 172.697 179.124ZM175.925 186H173.528L177.18 175.421H180.063L183.71 186H181.313L178.663 177.838H178.58L175.925 186ZM175.775 181.842H181.437V183.588H175.775V181.842ZM185.573 175.421L188.13 183.458H188.229L190.791 175.421H193.27L189.623 186H186.741L183.089 175.421H185.573ZM196.78 175.421V186H194.544V175.421H196.78ZM75.2863 204V193.421H77.523V198.085H77.6625L81.4697 193.421H84.1507L80.2247 198.158L84.1972 204H81.5213L78.6233 199.65L77.523 200.994V204H75.2863ZM94.0534 197.124H91.7908C91.7495 196.832 91.6651 196.572 91.5377 196.344C91.4102 196.114 91.2467 195.917 91.0469 195.755C90.8472 195.594 90.6164 195.47 90.3547 195.384C90.0964 195.297 89.8158 195.254 89.5127 195.254C88.9651 195.254 88.4882 195.39 88.0818 195.663C87.6754 195.931 87.3603 196.324 87.1365 196.84C86.9126 197.353 86.8007 197.977 86.8007 198.71C86.8007 199.464 86.9126 200.098 87.1365 200.611C87.3638 201.124 87.6806 201.512 88.087 201.774C88.4933 202.035 88.9634 202.166 89.4972 202.166C89.7968 202.166 90.074 202.127 90.3289 202.047C90.5872 201.968 90.8162 201.853 91.0159 201.701C91.2157 201.546 91.381 201.359 91.5118 201.138C91.6462 200.918 91.7391 200.666 91.7908 200.384L94.0534 200.394C93.9948 200.88 93.8485 201.348 93.6143 201.799C93.3836 202.247 93.0719 202.648 92.6793 203.003C92.2901 203.354 91.8252 203.633 91.2845 203.84C90.7473 204.043 90.1395 204.145 89.461 204.145C88.5174 204.145 87.6737 203.931 86.9298 203.504C86.1894 203.077 85.604 202.459 85.1735 201.65C84.7465 200.84 84.5329 199.861 84.5329 198.71C84.5329 197.557 84.7499 196.575 85.1838 195.766C85.6177 194.957 86.2066 194.34 86.9505 193.916C87.6944 193.489 88.5312 193.276 89.461 193.276C90.074 193.276 90.6423 193.362 91.1657 193.534C91.6926 193.706 92.1593 193.958 92.5657 194.288C92.972 194.616 93.3026 195.017 93.5575 195.492C93.8158 195.967 93.9811 196.511 94.0534 197.124ZM97.8941 193.421V204H95.6573V193.421H97.8941ZM103.583 204.145C102.811 204.145 102.124 204.012 101.522 203.747C100.923 203.478 100.449 203.11 100.101 202.641C99.7568 202.17 99.5794 201.625 99.5691 201.009H101.821C101.835 201.267 101.92 201.495 102.074 201.691C102.233 201.884 102.443 202.034 102.705 202.14C102.966 202.247 103.261 202.3 103.588 202.3C103.929 202.3 104.23 202.24 104.492 202.12C104.754 201.999 104.959 201.832 105.107 201.619C105.255 201.405 105.329 201.159 105.329 200.88C105.329 200.598 105.25 200.348 105.091 200.131C104.936 199.91 104.712 199.738 104.42 199.614C104.13 199.49 103.786 199.428 103.387 199.428H102.4V197.786H103.387C103.724 197.786 104.022 197.727 104.28 197.61C104.542 197.493 104.745 197.331 104.89 197.124C105.034 196.914 105.107 196.67 105.107 196.391C105.107 196.126 105.043 195.893 104.916 195.693C104.792 195.49 104.616 195.332 104.389 195.218C104.165 195.105 103.903 195.048 103.604 195.048C103.3 195.048 103.023 195.103 102.772 195.213C102.52 195.32 102.319 195.473 102.167 195.673C102.016 195.873 101.935 196.107 101.925 196.375H99.7809C99.7912 195.766 99.9651 195.229 100.303 194.764C100.64 194.299 101.095 193.935 101.666 193.674C102.242 193.409 102.891 193.276 103.614 193.276C104.344 193.276 104.983 193.409 105.53 193.674C106.078 193.939 106.503 194.297 106.806 194.748C107.113 195.196 107.264 195.699 107.261 196.257C107.264 196.849 107.08 197.343 106.708 197.739C106.34 198.135 105.859 198.387 105.267 198.493V198.576C106.045 198.676 106.638 198.946 107.044 199.387C107.454 199.824 107.657 200.372 107.653 201.03C107.657 201.632 107.483 202.168 107.132 202.636C106.784 203.105 106.303 203.473 105.69 203.742C105.077 204.01 104.375 204.145 103.583 204.145Z" fill="#2B495A"/>
<path d="M45.125 196.666H47.875V188.666H45.125V196.666ZM46.5 185.999C46.8896 185.999 47.2164 185.871 47.4804 185.615C47.7444 185.359 47.8759 185.043 47.875 184.666C47.8741 184.289 47.7421 183.973 47.479 183.717C47.2159 183.461 46.8896 183.333 46.5 183.333C46.1104 183.333 45.7841 183.461 45.521 183.717C45.2579 183.973 45.1259 184.289 45.125 184.666C45.1241 185.043 45.2561 185.36 45.521 185.617C45.7859 185.874 46.1123 186.001 46.5 185.999ZM46.5 203.333C44.5979 203.333 42.8104 202.982 41.1375 202.282C39.4646 201.582 38.0094 200.632 36.7719 199.433C35.5344 198.234 34.5549 196.822 33.8335 195.199C33.1121 193.576 32.7509 191.843 32.75 189.999C32.7491 188.156 33.1103 186.422 33.8335 184.799C34.5568 183.176 35.5362 181.765 36.7719 180.566C38.0075 179.367 39.4628 178.417 41.1375 177.717C42.8123 177.016 44.5998 176.666 46.5 176.666C48.4003 176.666 50.1877 177.016 51.8625 177.717C53.5373 178.417 54.9925 179.367 56.2281 180.566C57.4638 181.765 58.4437 183.176 59.1679 184.799C59.892 186.422 60.2528 188.156 60.25 189.999C60.2473 191.843 59.8861 193.576 59.1665 195.199C58.4469 196.822 57.4675 198.234 56.2281 199.433C54.9888 200.632 53.5336 201.582 51.8625 202.283C50.1914 202.985 48.4039 203.334 46.5 203.333ZM46.5 200.666C49.5708 200.666 52.1719 199.633 54.3031 197.566C56.4344 195.499 57.5 192.977 57.5 189.999C57.5 187.022 56.4344 184.499 54.3031 182.433C52.1719 180.366 49.5708 179.333 46.5 179.333C43.4292 179.333 40.8281 180.366 38.6969 182.433C36.5656 184.499 35.5 187.022 35.5 189.999C35.5 192.977 36.5656 195.499 38.6969 197.566C40.8281 199.633 43.4292 200.666 46.5 200.666Z" fill="#2B495A"/>
</g>
<rect x="0.5" y="0.5" width="1919" height="1079" stroke="black"/>
<defs>
<clipPath id="clip0_649_126">
<rect width="1920" height="1080" fill="white"/>
</clipPath>
<clipPath id="clip1_649_126">
<rect width="167" height="51" fill="white" transform="translate(33 36)"/>
</clipPath>
</defs>
</svg>
