<svg width="1920" height="1080" viewBox="0 0 1920 1080" fill="none" xmlns="http://www.w3.org/2000/svg">
<g clip-path="url(#clip0_651_145)">
<rect width="1920" height="1080" fill="white"/>
<rect y="-15" width="2017" height="153" fill="#22505F"/>
<g clip-path="url(#clip1_651_145)">
<path fill-rule="evenodd" clip-rule="evenodd" d="M113.206 57.2143H105.185C104.247 57.2143 104.069 57.2627 104.069 58.0871V58.411C104.069 58.8862 104.349 59.0084 105.032 59.1344C105.032 59.1344 110.118 60.0578 110.701 60.1567C113.738 60.7307 114.344 61.8771 114.344 64.3209V66.4158C114.344 69.5093 112.928 70.9796 108.449 70.9543C105.032 70.9543 99.4885 70.5567 99.4885 70.5567L99.5413 66.9646H107.867C109.284 66.9646 109.764 66.7144 109.764 65.667V64.9184C109.764 64.546 109.689 64.1968 109.106 64.0979C108.499 63.9718 104.652 63.2988 104.247 63.2232C100.933 62.651 99.3633 62.426 99.3633 59.309V57.7128C99.3633 54.5959 100.882 53.2246 105.361 53.2246C108.777 53.2246 113.256 53.6241 113.256 53.6241L113.206 57.2143Z" fill="white"/>
<path fill-rule="evenodd" clip-rule="evenodd" d="M122.592 63.0962H126.918L125.122 56.8643H124.388L122.592 63.0962ZM127.932 66.8609H121.603L120.439 70.8254H115.43C115.43 70.8254 120.492 55.1167 120.846 54.0694C121.048 53.3963 121.124 53.3711 122.034 53.3711H127.501C128.413 53.3711 128.487 53.3963 128.689 54.0694C129.02 55.1167 134.08 70.8254 134.08 70.8254H129.094L127.932 66.8609Z" fill="white"/>
<path d="M136.2 53.376H140.78V70.8303H136.2V53.376Z" fill="white"/>
<path d="M148.802 62.0489V57.0622H153.229C154.546 57.0622 155.054 57.6848 155.054 58.8078V60.3051C155.054 61.401 154.546 62.0489 153.229 62.0489H148.802ZM154.656 53.373H144.222V70.8255H148.802V65.7399H154.47C157.887 65.7399 159.634 63.7945 159.634 61.2012V57.8845C159.634 55.3378 157.949 53.4409 154.656 53.373Z" fill="white"/>
<path d="M175.875 53.3711H162.434V70.8254H175.847V66.9114H167.019V63.8933H174.533V60.1034H167.019V57.0621H175.875V53.3711Z" fill="white"/>
<path d="M199.399 53.3711H193.607C193.352 53.3711 193.302 53.596 193.302 53.596L189.331 63.969H189.128L185.155 53.596C185.155 53.596 185.103 53.3711 184.852 53.3711H179.057V70.8254H183.637V61.3506H183.888L187.003 70.5016C187.003 70.5016 187.079 70.8254 187.406 70.8254H191.074C191.38 70.8254 191.454 70.5016 191.454 70.5016L194.567 61.3506H194.82V70.8254H199.399V53.3711Z" fill="white"/>
<path d="M44.7715 55.0039V63.6486L74.5557 69.3278V60.683L44.7715 55.0039Z" fill="#E98300"/>
<path d="M41.874 75.1933H33V88.3283H58.3521V79.5438H41.874V75.1933ZM77.376 61.2127V79.4857L60.9742 79.5438V88.3283H86.3263V62.9293L77.376 61.2127ZM58.3521 36H33V61.3951L41.874 63.0844V44.7107H58.3521V36ZM86.3263 36H60.9742V44.7107H77.376V49.0651H86.3263V36Z" fill="white"/>
</g>
<rect x="259.5" y="174.5" width="217.91" height="109" rx="11.5" fill="#FDD086" fill-opacity="0.23" stroke="#22505F"/>
<path d="M71.9195 186V175.421H76.0934C76.8958 175.421 77.5794 175.574 78.1442 175.88C78.709 176.183 79.1395 176.605 79.4356 177.146C79.7353 177.683 79.8851 178.303 79.8851 179.006C79.8851 179.708 79.7335 180.328 79.4305 180.865C79.1274 181.402 78.6883 181.821 78.1132 182.121C77.5415 182.42 76.8493 182.57 76.0366 182.57H73.3762V180.777H75.675C76.1055 180.777 76.4602 180.703 76.7391 180.555C77.0215 180.404 77.2316 180.195 77.3694 179.93C77.5105 179.662 77.5811 179.353 77.5811 179.006C77.5811 178.654 77.5105 178.348 77.3694 178.086C77.2316 177.821 77.0215 177.616 76.7391 177.471C76.4567 177.323 76.0986 177.249 75.6647 177.249H74.1563V186H71.9195ZM81.3379 186V175.421H85.5118C86.3108 175.421 86.9927 175.563 87.5575 175.849C88.1257 176.132 88.5579 176.533 88.8541 177.053C89.1537 177.57 89.3035 178.177 89.3035 178.876C89.3035 179.579 89.152 180.183 88.8489 180.69C88.5458 181.192 88.1068 181.578 87.5316 181.847C86.96 182.115 86.2678 182.25 85.455 182.25H82.6604V180.452H85.0934C85.5204 180.452 85.8752 180.393 86.1576 180.276C86.44 180.159 86.65 179.984 86.7878 179.749C86.929 179.515 86.9996 179.224 86.9996 178.876C86.9996 178.525 86.929 178.229 86.7878 177.988C86.65 177.747 86.4382 177.564 86.1524 177.44C85.87 177.313 85.5136 177.249 85.0831 177.249H83.5747V186H81.3379ZM87.0512 181.186L89.6806 186H87.2114L84.6388 181.186H87.0512ZM100.606 180.71C100.606 181.864 100.387 182.845 99.9501 183.655C99.5161 184.464 98.9238 185.082 98.1731 185.509C97.4257 185.933 96.5855 186.145 95.6522 186.145C94.712 186.145 93.8683 185.931 93.121 185.504C92.3737 185.077 91.783 184.459 91.3491 183.65C90.9152 182.84 90.6982 181.861 90.6982 180.71C90.6982 179.557 90.9152 178.575 91.3491 177.766C91.783 176.957 92.3737 176.34 93.121 175.916C93.8683 175.489 94.712 175.276 95.6522 175.276C96.5855 175.276 97.4257 175.489 98.1731 175.916C98.9238 176.34 99.5161 176.957 99.9501 177.766C100.387 178.575 100.606 179.557 100.606 180.71ZM98.3384 180.71C98.3384 179.963 98.2264 179.333 98.0026 178.82C97.7822 178.306 97.4705 177.917 97.0676 177.652C96.6647 177.387 96.1929 177.254 95.6522 177.254C95.1115 177.254 94.6397 177.387 94.2368 177.652C93.8338 177.917 93.5205 178.306 93.2966 178.82C93.0762 179.333 92.966 179.963 92.966 180.71C92.966 181.458 93.0762 182.088 93.2966 182.601C93.5205 183.114 93.8338 183.503 94.2368 183.768C94.6397 184.034 95.1115 184.166 95.6522 184.166C96.1929 184.166 96.6647 184.034 97.0676 183.768C97.4705 183.503 97.7822 183.114 98.0026 182.601C98.2264 182.088 98.3384 181.458 98.3384 180.71ZM109.278 178.84C109.206 178.589 109.104 178.367 108.973 178.174C108.842 177.978 108.682 177.812 108.493 177.678C108.307 177.54 108.093 177.435 107.852 177.363C107.615 177.291 107.351 177.254 107.062 177.254C106.521 177.254 106.046 177.389 105.636 177.657C105.23 177.926 104.913 178.317 104.686 178.83C104.458 179.34 104.345 179.963 104.345 180.7C104.345 181.437 104.457 182.064 104.681 182.58C104.904 183.097 105.221 183.491 105.631 183.763C106.041 184.032 106.525 184.166 107.083 184.166C107.589 184.166 108.021 184.077 108.379 183.898C108.741 183.715 109.016 183.458 109.206 183.128C109.399 182.797 109.495 182.406 109.495 181.955L109.95 182.022H107.222V180.338H111.649V181.671C111.649 182.601 111.453 183.4 111.06 184.068C110.668 184.733 110.127 185.246 109.438 185.607C108.749 185.966 107.961 186.145 107.072 186.145C106.081 186.145 105.209 185.926 104.458 185.489C103.708 185.048 103.122 184.423 102.702 183.613C102.285 182.801 102.077 181.836 102.077 180.721C102.077 179.863 102.201 179.099 102.449 178.427C102.7 177.752 103.052 177.18 103.503 176.712C103.954 176.244 104.479 175.887 105.078 175.643C105.678 175.398 106.327 175.276 107.026 175.276C107.625 175.276 108.183 175.364 108.7 175.539C109.216 175.712 109.674 175.956 110.074 176.273C110.477 176.59 110.805 176.967 111.06 177.404C111.315 177.838 111.479 178.317 111.551 178.84H109.278ZM113.329 186V175.421H117.503C118.302 175.421 118.984 175.563 119.549 175.849C120.117 176.132 120.549 176.533 120.845 177.053C121.145 177.57 121.295 178.177 121.295 178.876C121.295 179.579 121.143 180.183 120.84 180.69C120.537 181.192 120.098 181.578 119.523 181.847C118.951 182.115 118.259 182.25 117.446 182.25H114.652V180.452H117.085C117.512 180.452 117.867 180.393 118.149 180.276C118.431 180.159 118.641 179.984 118.779 179.749C118.92 179.515 118.991 179.224 118.991 178.876C118.991 178.525 118.92 178.229 118.779 177.988C118.641 177.747 118.43 177.564 118.144 177.44C117.861 177.313 117.505 177.249 117.074 177.249H115.566V186H113.329ZM119.043 181.186L121.672 186H119.203L116.63 181.186H119.043ZM122.876 186V175.421H130.004V177.265H125.112V179.786H129.638V181.63H125.112V184.156H130.025V186H122.876ZM137.522 178.463C137.48 178.046 137.303 177.723 136.99 177.492C136.676 177.261 136.251 177.146 135.714 177.146C135.349 177.146 135.04 177.198 134.789 177.301C134.538 177.401 134.345 177.54 134.211 177.719C134.08 177.898 134.014 178.102 134.014 178.329C134.007 178.518 134.047 178.684 134.133 178.825C134.223 178.966 134.345 179.088 134.5 179.192C134.655 179.291 134.834 179.379 135.037 179.455C135.24 179.527 135.457 179.589 135.688 179.641L136.638 179.868C137.1 179.972 137.523 180.109 137.909 180.282C138.295 180.454 138.629 180.666 138.911 180.917C139.194 181.168 139.412 181.464 139.567 181.805C139.726 182.146 139.807 182.537 139.81 182.978C139.807 183.625 139.641 184.187 139.314 184.662C138.991 185.134 138.522 185.501 137.909 185.762C137.3 186.021 136.564 186.15 135.703 186.15C134.849 186.15 134.105 186.019 133.472 185.757C132.842 185.495 132.349 185.108 131.994 184.595C131.643 184.078 131.459 183.44 131.442 182.678H133.606C133.63 183.033 133.732 183.329 133.911 183.567C134.093 183.801 134.336 183.978 134.639 184.099C134.946 184.216 135.292 184.275 135.678 184.275C136.056 184.275 136.385 184.22 136.664 184.109C136.947 183.999 137.165 183.846 137.32 183.65C137.475 183.453 137.553 183.228 137.553 182.973C137.553 182.735 137.482 182.536 137.341 182.374C137.203 182.212 137 182.074 136.731 181.96C136.466 181.847 136.141 181.743 135.755 181.65L134.603 181.361C133.711 181.144 133.007 180.805 132.49 180.344C131.974 179.882 131.717 179.26 131.721 178.479C131.717 177.838 131.888 177.279 132.232 176.8C132.58 176.321 133.057 175.947 133.663 175.679C134.269 175.41 134.958 175.276 135.729 175.276C136.514 175.276 137.2 175.41 137.785 175.679C138.374 175.947 138.832 176.321 139.159 176.8C139.486 177.279 139.655 177.833 139.666 178.463H137.522ZM147.054 178.463C147.012 178.046 146.835 177.723 146.522 177.492C146.208 177.261 145.783 177.146 145.246 177.146C144.881 177.146 144.573 177.198 144.321 177.301C144.07 177.401 143.877 177.54 143.743 177.719C143.612 177.898 143.546 178.102 143.546 178.329C143.539 178.518 143.579 178.684 143.665 178.825C143.755 178.966 143.877 179.088 144.032 179.192C144.187 179.291 144.366 179.379 144.569 179.455C144.772 179.527 144.989 179.589 145.22 179.641L146.17 179.868C146.632 179.972 147.056 180.109 147.441 180.282C147.827 180.454 148.161 180.666 148.443 180.917C148.726 181.168 148.944 181.464 149.099 181.805C149.258 182.146 149.339 182.537 149.342 182.978C149.339 183.625 149.173 184.187 148.846 184.662C148.523 185.134 148.054 185.501 147.441 185.762C146.832 186.021 146.096 186.15 145.235 186.15C144.381 186.15 143.638 186.019 143.004 185.757C142.374 185.495 141.881 185.108 141.526 184.595C141.175 184.078 140.991 183.44 140.974 182.678H143.138C143.162 183.033 143.264 183.329 143.443 183.567C143.625 183.801 143.868 183.978 144.171 184.099C144.478 184.216 144.824 184.275 145.21 184.275C145.588 184.275 145.917 184.22 146.196 184.109C146.479 183.999 146.697 183.846 146.852 183.65C147.007 183.453 147.085 183.228 147.085 182.973C147.085 182.735 147.014 182.536 146.873 182.374C146.735 182.212 146.532 182.074 146.263 181.96C145.998 181.847 145.673 181.743 145.287 181.65L144.135 181.361C143.243 181.144 142.539 180.805 142.022 180.344C141.506 179.882 141.249 179.26 141.253 178.479C141.249 177.838 141.42 177.279 141.764 176.8C142.112 176.321 142.589 175.947 143.195 175.679C143.801 175.41 144.49 175.276 145.261 175.276C146.047 175.276 146.732 175.41 147.317 175.679C147.906 175.947 148.364 176.321 148.691 176.8C149.019 177.279 149.187 177.833 149.198 178.463H147.054ZM75.2863 204V193.421H77.523V198.085H77.6625L81.4697 193.421H84.1507L80.2247 198.158L84.1972 204H81.5213L78.6233 199.65L77.523 200.994V204H75.2863ZM94.0534 197.124H91.7908C91.7495 196.832 91.6651 196.572 91.5377 196.344C91.4102 196.114 91.2467 195.917 91.0469 195.755C90.8472 195.594 90.6164 195.47 90.3547 195.384C90.0964 195.297 89.8158 195.254 89.5127 195.254C88.9651 195.254 88.4882 195.39 88.0818 195.663C87.6754 195.931 87.3603 196.324 87.1365 196.84C86.9126 197.353 86.8007 197.977 86.8007 198.71C86.8007 199.464 86.9126 200.098 87.1365 200.611C87.3638 201.124 87.6806 201.512 88.087 201.774C88.4933 202.035 88.9634 202.166 89.4972 202.166C89.7968 202.166 90.074 202.127 90.3289 202.047C90.5872 201.968 90.8162 201.853 91.0159 201.701C91.2157 201.546 91.381 201.359 91.5118 201.138C91.6462 200.918 91.7391 200.666 91.7908 200.384L94.0534 200.394C93.9948 200.88 93.8485 201.348 93.6143 201.799C93.3836 202.247 93.0719 202.648 92.6793 203.003C92.2901 203.354 91.8252 203.633 91.2845 203.84C90.7473 204.043 90.1395 204.145 89.461 204.145C88.5174 204.145 87.6737 203.931 86.9298 203.504C86.1894 203.077 85.604 202.459 85.1735 201.65C84.7465 200.84 84.5329 199.861 84.5329 198.71C84.5329 197.557 84.7499 196.575 85.1838 195.766C85.6177 194.957 86.2066 194.34 86.9505 193.916C87.6944 193.489 88.5312 193.276 89.461 193.276C90.074 193.276 90.6423 193.362 91.1657 193.534C91.6926 193.706 92.1593 193.958 92.5657 194.288C92.972 194.616 93.3026 195.017 93.5575 195.492C93.8158 195.967 93.9811 196.511 94.0534 197.124ZM97.8941 193.421V204H95.6573V193.421H97.8941ZM99.5123 202.14V200.379L103.929 193.421H105.448V195.859H104.549L101.765 200.265V200.348H108.041V202.14H99.5123ZM104.59 204V201.603L104.632 200.823V193.421H106.729V204H104.59Z" fill="#2B495A"/>
<path d="M45.125 196.666H47.875V188.666H45.125V196.666ZM46.5 185.999C46.8896 185.999 47.2164 185.871 47.4804 185.615C47.7444 185.359 47.8759 185.043 47.875 184.666C47.8741 184.289 47.7421 183.973 47.479 183.717C47.2159 183.461 46.8896 183.333 46.5 183.333C46.1104 183.333 45.7841 183.461 45.521 183.717C45.2579 183.973 45.1259 184.289 45.125 184.666C45.1241 185.043 45.2561 185.36 45.521 185.617C45.7859 185.874 46.1123 186.001 46.5 185.999ZM46.5 203.333C44.5979 203.333 42.8104 202.982 41.1375 202.282C39.4646 201.582 38.0094 200.632 36.7719 199.433C35.5344 198.234 34.5549 196.822 33.8335 195.199C33.1121 193.576 32.7509 191.843 32.75 189.999C32.7491 188.156 33.1103 186.422 33.8335 184.799C34.5568 183.176 35.5362 181.765 36.7719 180.566C38.0075 179.367 39.4628 178.417 41.1375 177.717C42.8123 177.016 44.5998 176.666 46.5 176.666C48.4003 176.666 50.1877 177.016 51.8625 177.717C53.5373 178.417 54.9925 179.367 56.2281 180.566C57.4638 181.765 58.4437 183.176 59.1679 184.799C59.892 186.422 60.2528 188.156 60.25 189.999C60.2473 191.843 59.8861 193.576 59.1665 195.199C58.4469 196.822 57.4675 198.234 56.2281 199.433C54.9888 200.632 53.5336 201.582 51.8625 202.283C50.1914 202.985 48.4039 203.334 46.5 203.333ZM46.5 200.666C49.5708 200.666 52.1719 199.633 54.3031 197.566C56.4344 195.499 57.5 192.977 57.5 189.999C57.5 187.022 56.4344 184.499 54.3031 182.433C52.1719 180.366 49.5708 179.333 46.5 179.333C43.4292 179.333 40.8281 180.366 38.6969 182.433C36.5656 184.499 35.5 187.022 35.5 189.999C35.5 192.977 36.5656 195.499 38.6969 197.566C40.8281 199.633 43.4292 200.666 46.5 200.666Z" fill="#2B495A"/>
</g>
<rect x="0.5" y="0.5" width="1919" height="1079" stroke="black"/>
<defs>
<clipPath id="clip0_651_145">
<rect width="1920" height="1080" fill="white"/>
</clipPath>
<clipPath id="clip1_651_145">
<rect width="167" height="51" fill="white" transform="translate(33 36)"/>
</clipPath>
</defs>
</svg>
