<svg width="1920" height="1080" viewBox="0 0 1920 1080" fill="none" xmlns="http://www.w3.org/2000/svg">
<g clip-path="url(#clip0_943_96)">
<rect width="1920" height="1080" fill="white"/>
<rect width="2017" height="132" fill="#22505F"/>
<g clip-path="url(#clip1_943_96)">
<path fill-rule="evenodd" clip-rule="evenodd" d="M113.206 57.2143H105.185C104.248 57.2143 104.07 57.2627 104.07 58.0871V58.411C104.07 58.8862 104.349 59.0084 105.032 59.1344C105.032 59.1344 110.118 60.0578 110.701 60.1567C113.738 60.7307 114.345 61.8771 114.345 64.3209V66.4158C114.345 69.5093 112.928 70.9796 108.449 70.9543C105.032 70.9543 99.4888 70.5567 99.4888 70.5567L99.5416 66.9646H107.868C109.284 66.9646 109.764 66.7144 109.764 65.667V64.9184C109.764 64.546 109.689 64.1968 109.106 64.0979C108.5 63.9718 104.653 63.2988 104.248 63.2232C100.933 62.651 99.3635 62.426 99.3635 59.309V57.7128C99.3635 54.5959 100.882 53.2246 105.361 53.2246C108.778 53.2246 113.257 53.6241 113.257 53.6241L113.206 57.2143Z" fill="white"/>
<path fill-rule="evenodd" clip-rule="evenodd" d="M122.591 63.0962H126.918L125.121 56.8643H124.388L122.591 63.0962ZM127.931 66.8609H121.603L120.439 70.8254H115.429C115.429 70.8254 120.492 55.1167 120.846 54.0694C121.047 53.3963 121.124 53.3711 122.034 53.3711H127.501C128.413 53.3711 128.487 53.3963 128.689 54.0694C129.019 55.1167 134.08 70.8254 134.08 70.8254H129.094L127.931 66.8609Z" fill="white"/>
<path d="M136.2 53.376H140.78V70.8303H136.2V53.376Z" fill="white"/>
<path d="M148.802 62.0489V57.0622H153.229C154.546 57.0622 155.053 57.6848 155.053 58.8078V60.3051C155.053 61.401 154.546 62.0489 153.229 62.0489H148.802ZM154.656 53.373H144.222V70.8255H148.802V65.7399H154.47C157.887 65.7399 159.634 63.7945 159.634 61.2012V57.8845C159.634 55.3378 157.949 53.4409 154.656 53.373Z" fill="white"/>
<path d="M175.875 53.3711H162.434V70.8254H175.847V66.9114H167.019V63.8933H174.533V60.1034H167.019V57.0621H175.875V53.3711Z" fill="white"/>
<path d="M199.398 53.3711H193.607C193.352 53.3711 193.302 53.596 193.302 53.596L189.331 63.969H189.128L185.155 53.596C185.155 53.596 185.103 53.3711 184.852 53.3711H179.056V70.8254H183.637V61.3506H183.888L187.003 70.5016C187.003 70.5016 187.079 70.8254 187.405 70.8254H191.074C191.38 70.8254 191.454 70.5016 191.454 70.5016L194.567 61.3506H194.82V70.8254H199.398V53.3711Z" fill="white"/>
<path d="M44.7715 55.0039V63.6486L74.5557 69.3278V60.683L44.7715 55.0039Z" fill="#E98300"/>
<path d="M41.874 75.1933H33V88.3283H58.3521V79.5438H41.874V75.1933ZM77.376 61.2127V79.4857L60.9742 79.5438V88.3283H86.3263V62.9293L77.376 61.2127ZM58.3521 36H33V61.3951L41.874 63.0844V44.7107H58.3521V36ZM86.3263 36H60.9742V44.7107H77.376V49.0651H86.3263V36Z" fill="white"/>
</g>
<rect x="259.5" y="174.5" width="217.91" height="109" rx="11.5" fill="#FDD086" fill-opacity="0.23" stroke="#22505F"/>
<path d="M81.254 190.124H78.9914C78.9501 189.832 78.8657 189.572 78.7383 189.344C78.6108 189.114 78.4473 188.917 78.2475 188.755C78.0478 188.594 77.817 188.47 77.5553 188.384C77.297 188.297 77.0164 188.254 76.7133 188.254C76.1657 188.254 75.6888 188.39 75.2824 188.663C74.876 188.931 74.5609 189.324 74.3371 189.84C74.1132 190.353 74.0013 190.977 74.0013 191.71C74.0013 192.464 74.1132 193.098 74.3371 193.611C74.5644 194.124 74.8812 194.512 75.2876 194.774C75.6939 195.035 76.164 195.166 76.6978 195.166C76.9974 195.166 77.2746 195.127 77.5295 195.047C77.7878 194.968 78.0168 194.853 78.2165 194.701C78.4163 194.546 78.5816 194.359 78.7124 194.138C78.8468 193.918 78.9397 193.666 78.9914 193.384L81.254 193.394C81.1954 193.88 81.0491 194.348 80.8149 194.799C80.5842 195.247 80.2725 195.648 79.8799 196.003C79.4907 196.354 79.0258 196.633 78.4852 196.84C77.9479 197.043 77.3401 197.145 76.6616 197.145C75.718 197.145 74.8743 196.931 74.1304 196.504C73.39 196.077 72.8046 195.459 72.3741 194.65C71.9471 193.84 71.7335 192.861 71.7335 191.71C71.7335 190.557 71.9505 189.575 72.3844 188.766C72.8183 187.957 73.4072 187.34 74.1511 186.916C74.895 186.489 75.7318 186.276 76.6616 186.276C77.2746 186.276 77.8429 186.362 78.3663 186.534C78.8932 186.706 79.3599 186.958 79.7663 187.288C80.1726 187.616 80.5032 188.017 80.7581 188.492C81.0164 188.967 81.1817 189.511 81.254 190.124ZM92.5799 191.71C92.5799 192.864 92.3612 193.845 91.9238 194.655C91.4899 195.464 90.8975 196.082 90.1468 196.509C89.3995 196.933 88.5592 197.145 87.6259 197.145C86.6858 197.145 85.842 196.931 85.0947 196.504C84.3474 196.077 83.7568 195.459 83.3229 194.65C82.8889 193.84 82.672 192.861 82.672 191.71C82.672 190.557 82.8889 189.575 83.3229 188.766C83.7568 187.957 84.3474 187.34 85.0947 186.916C85.842 186.489 86.6858 186.276 87.6259 186.276C88.5592 186.276 89.3995 186.489 90.1468 186.916C90.8975 187.34 91.4899 187.957 91.9238 188.766C92.3612 189.575 92.5799 190.557 92.5799 191.71ZM90.3121 191.71C90.3121 190.963 90.2002 190.333 89.9763 189.82C89.7559 189.306 89.4443 188.917 89.0413 188.652C88.6384 188.387 88.1666 188.254 87.6259 188.254C87.0852 188.254 86.6134 188.387 86.2105 188.652C85.8076 188.917 85.4942 189.306 85.2703 189.82C85.0499 190.333 84.9397 190.963 84.9397 191.71C84.9397 192.458 85.0499 193.088 85.2703 193.601C85.4942 194.114 85.8076 194.503 86.2105 194.768C86.6134 195.034 87.0852 195.166 87.6259 195.166C88.1666 195.166 88.6384 195.034 89.0413 194.768C89.4443 194.503 89.7559 194.114 89.9763 193.601C90.2002 193.088 90.3121 192.458 90.3121 191.71ZM99.9759 189.463C99.9346 189.046 99.7572 188.723 99.4438 188.492C99.1304 188.261 98.7051 188.146 98.1679 188.146C97.8028 188.146 97.4946 188.198 97.2432 188.301C96.9918 188.401 96.799 188.54 96.6647 188.719C96.5338 188.898 96.4684 189.102 96.4684 189.329C96.4615 189.518 96.5011 189.684 96.5872 189.825C96.6767 189.966 96.799 190.088 96.9539 190.192C97.1089 190.291 97.288 190.379 97.4912 190.455C97.6944 190.527 97.9113 190.589 98.1421 190.641L99.0926 190.868C99.554 190.972 99.9776 191.109 100.363 191.282C100.749 191.454 101.083 191.666 101.365 191.917C101.648 192.168 101.867 192.464 102.022 192.805C102.18 193.146 102.261 193.537 102.264 193.978C102.261 194.625 102.096 195.187 101.768 195.662C101.445 196.134 100.976 196.501 100.363 196.762C99.7538 197.021 99.0185 197.15 98.1576 197.15C97.3035 197.15 96.5596 197.019 95.926 196.757C95.2957 196.495 94.8033 196.108 94.4486 195.595C94.0973 195.078 93.913 194.44 93.8958 193.678H96.0603C96.0844 194.033 96.186 194.329 96.365 194.567C96.5476 194.801 96.7904 194.978 97.0934 195.099C97.3999 195.216 97.746 195.275 98.1317 195.275C98.5105 195.275 98.8394 195.22 99.1184 195.109C99.4008 194.999 99.6195 194.846 99.7744 194.65C99.9294 194.453 100.007 194.228 100.007 193.973C100.007 193.735 99.9363 193.536 99.7951 193.374C99.6573 193.212 99.4542 193.074 99.1855 192.96C98.9204 192.847 98.5949 192.743 98.2092 192.65L97.0573 192.361C96.1653 192.144 95.461 191.805 94.9445 191.344C94.4279 190.882 94.1713 190.26 94.1748 189.479C94.1713 188.838 94.3418 188.279 94.6862 187.8C95.034 187.321 95.511 186.947 96.1171 186.679C96.7232 186.41 97.412 186.276 98.1834 186.276C98.9686 186.276 99.6539 186.41 100.239 186.679C100.828 186.947 101.286 187.321 101.613 187.8C101.941 188.279 102.109 188.833 102.12 189.463H99.9759ZM103.366 188.265V186.421H112.055V188.265H108.816V197H106.605V188.265H103.366ZM115.722 186.421V197H113.486V186.421H115.722ZM120.929 197V186.421H123.166V191.085H123.306L127.113 186.421H129.794L125.868 191.158L129.84 197H127.164L124.266 192.65L123.166 193.994V197H120.929ZM139.697 190.124H137.434C137.393 189.832 137.308 189.572 137.181 189.344C137.053 189.114 136.89 188.917 136.69 188.755C136.49 188.594 136.26 188.47 135.998 188.384C135.74 188.297 135.459 188.254 135.156 188.254C134.608 188.254 134.131 188.39 133.725 188.663C133.319 188.931 133.003 189.324 132.78 189.84C132.556 190.353 132.444 190.977 132.444 191.71C132.444 192.464 132.556 193.098 132.78 193.611C133.007 194.124 133.324 194.512 133.73 194.774C134.136 195.035 134.607 195.166 135.14 195.166C135.44 195.166 135.717 195.127 135.972 195.047C136.23 194.968 136.459 194.853 136.659 194.701C136.859 194.546 137.024 194.359 137.155 194.138C137.289 193.918 137.382 193.666 137.434 193.384L139.697 193.394C139.638 193.88 139.492 194.348 139.257 194.799C139.027 195.247 138.715 195.648 138.322 196.003C137.933 196.354 137.468 196.633 136.928 196.84C136.39 197.043 135.783 197.145 135.104 197.145C134.161 197.145 133.317 196.931 132.573 196.504C131.833 196.077 131.247 195.459 130.817 194.65C130.39 193.84 130.176 192.861 130.176 191.71C130.176 190.557 130.393 189.575 130.827 188.766C131.261 187.957 131.85 187.34 132.594 186.916C133.338 186.489 134.174 186.276 135.104 186.276C135.717 186.276 136.285 186.362 136.809 186.534C137.336 186.706 137.802 186.958 138.209 187.288C138.615 187.616 138.946 188.017 139.201 188.492C139.459 188.967 139.624 189.511 139.697 190.124ZM143.537 186.421V197H141.3V186.421H143.537ZM145.734 197L150.12 188.322V188.249H145.011V186.421H152.434V188.275L148.043 197H145.734Z" fill="#2B495A"/>
<path d="M45.1248 196.666H47.8748V188.666H45.1248V196.666ZM46.4998 185.999C46.8893 185.999 47.2161 185.871 47.4801 185.615C47.7441 185.359 47.8757 185.043 47.8748 184.666C47.8738 184.289 47.7418 183.973 47.4788 183.717C47.2157 183.461 46.8893 183.333 46.4998 183.333C46.1102 183.333 45.7838 183.461 45.5208 183.717C45.2577 183.973 45.1257 184.289 45.1248 184.666C45.1238 185.043 45.2558 185.36 45.5208 185.617C45.7857 185.874 46.112 186.001 46.4998 185.999ZM46.4998 203.333C44.5977 203.333 42.8102 202.982 41.1373 202.282C39.4643 201.582 38.0091 200.632 36.7716 199.433C35.5341 198.234 34.5547 196.822 33.8333 195.199C33.1118 193.576 32.7507 191.843 32.7498 189.999C32.7488 188.156 33.11 186.422 33.8333 184.799C34.5565 183.176 35.536 181.765 36.7716 180.566C38.0073 179.367 39.4625 178.417 41.1373 177.717C42.812 177.016 44.5995 176.666 46.4998 176.666C48.4 176.666 50.1875 177.016 51.8623 177.717C53.537 178.417 54.9922 179.367 56.2279 180.566C57.4636 181.765 58.4435 183.176 59.1676 184.799C59.8918 186.422 60.2525 188.156 60.2498 189.999C60.247 191.843 59.8858 193.576 59.1663 195.199C58.4467 196.822 57.4672 198.234 56.2279 199.433C54.9886 200.632 53.5333 201.582 51.8623 202.283C50.1912 202.985 48.4037 203.334 46.4998 203.333ZM46.4998 200.666C49.5706 200.666 52.1716 199.633 54.3029 197.566C56.4341 195.499 57.4998 192.977 57.4998 189.999C57.4998 187.022 56.4341 184.499 54.3029 182.433C52.1716 180.366 49.5706 179.333 46.4998 179.333C43.4289 179.333 40.8279 180.366 38.6966 182.433C36.5654 184.499 35.4998 187.022 35.4998 189.999C35.4998 192.977 36.5654 195.499 38.6966 197.566C40.8279 199.633 43.4289 200.666 46.4998 200.666Z" fill="#2B495A"/>
</g>
<rect x="0.5" y="0.5" width="1919" height="1079" stroke="black"/>
<defs>
<clipPath id="clip0_943_96">
<rect width="1920" height="1080" fill="white"/>
</clipPath>
<clipPath id="clip1_943_96">
<rect width="167" height="51" fill="white" transform="translate(33 36)"/>
</clipPath>
</defs>
</svg>
