<svg width="1920" height="1080" viewBox="0 0 1920 1080" fill="none" xmlns="http://www.w3.org/2000/svg">
<g clip-path="url(#clip0_943_96)">
<rect width="1920" height="1080" fill="white"/>
<rect width="2017" height="132" fill="#22505F"/>
<g clip-path="url(#clip1_943_96)">
<path fill-rule="evenodd" clip-rule="evenodd" d="M113.206 57.2143H105.185C104.248 57.2143 104.07 57.2627 104.07 58.0871V58.411C104.07 58.8862 104.349 59.0084 105.032 59.1344C105.032 59.1344 110.118 60.0578 110.701 60.1567C113.738 60.7307 114.345 61.8771 114.345 64.3209V66.4158C114.345 69.5093 112.928 70.9796 108.449 70.9543C105.032 70.9543 99.4888 70.5567 99.4888 70.5567L99.5416 66.9646H107.868C109.284 66.9646 109.764 66.7144 109.764 65.667V64.9184C109.764 64.546 109.689 64.1968 109.106 64.0979C108.5 63.9718 104.653 63.2988 104.248 63.2232C100.933 62.651 99.3635 62.426 99.3635 59.309V57.7128C99.3635 54.5959 100.882 53.2246 105.361 53.2246C108.778 53.2246 113.257 53.6241 113.257 53.6241L113.206 57.2143Z" fill="white"/>
<path fill-rule="evenodd" clip-rule="evenodd" d="M122.591 63.0962H126.918L125.121 56.8643H124.388L122.591 63.0962ZM127.931 66.8609H121.603L120.439 70.8254H115.429C115.429 70.8254 120.492 55.1167 120.846 54.0694C121.047 53.3963 121.124 53.3711 122.034 53.3711H127.501C128.413 53.3711 128.487 53.3963 128.689 54.0694C129.019 55.1167 134.08 70.8254 134.08 70.8254H129.094L127.931 66.8609Z" fill="white"/>
<path d="M136.2 53.376H140.78V70.8303H136.2V53.376Z" fill="white"/>
<path d="M148.802 62.0489V57.0622H153.229C154.546 57.0622 155.053 57.6848 155.053 58.8078V60.3051C155.053 61.401 154.546 62.0489 153.229 62.0489H148.802ZM154.656 53.373H144.222V70.8255H148.802V65.7399H154.47C157.887 65.7399 159.634 63.7945 159.634 61.2012V57.8845C159.634 55.3378 157.949 53.4409 154.656 53.373Z" fill="white"/>
<path d="M175.875 53.3711H162.434V70.8254H175.847V66.9114H167.019V63.8933H174.533V60.1034H167.019V57.0621H175.875V53.3711Z" fill="white"/>
<path d="M199.398 53.3711H193.607C193.352 53.3711 193.302 53.596 193.302 53.596L189.331 63.969H189.128L185.155 53.596C185.155 53.596 185.103 53.3711 184.852 53.3711H179.056V70.8254H183.637V61.3506H183.888L187.003 70.5016C187.003 70.5016 187.079 70.8254 187.405 70.8254H191.074C191.38 70.8254 191.454 70.5016 191.454 70.5016L194.567 61.3506H194.82V70.8254H199.398V53.3711Z" fill="white"/>
<path d="M44.7715 55.0039V63.6486L74.5557 69.3278V60.683L44.7715 55.0039Z" fill="#E98300"/>
<path d="M41.874 75.1933H33V88.3283H58.3521V79.5438H41.874V75.1933ZM77.376 61.2127V79.4857L60.9742 79.5438V88.3283H86.3263V62.9293L77.376 61.2127ZM58.3521 36H33V61.3951L41.874 63.0844V44.7107H58.3521V36ZM86.3263 36H60.9742V44.7107H77.376V49.0651H86.3263V36Z" fill="white"/>
</g>
<rect x="259.5" y="174.5" width="218" height="109" rx="11.5" fill="#FDD086" fill-opacity="0.23" stroke="#22505F"/>
<path d="M81.254 190.124H78.9914C78.9501 189.832 78.8657 189.572 78.7383 189.344C78.6108 189.114 78.4473 188.917 78.2475 188.755C78.0478 188.594 77.817 188.47 77.5553 188.384C77.297 188.297 77.0164 188.254 76.7133 188.254C76.1657 188.254 75.6888 188.39 75.2824 188.663C74.876 188.931 74.5609 189.324 74.3371 189.84C74.1132 190.353 74.0013 190.977 74.0013 191.71C74.0013 192.464 74.1132 193.098 74.3371 193.611C74.5644 194.124 74.8812 194.512 75.2876 194.774C75.6939 195.035 76.164 195.166 76.6978 195.166C76.9974 195.166 77.2746 195.127 77.5295 195.047C77.7878 194.968 78.0168 194.853 78.2165 194.701C78.4163 194.546 78.5816 194.359 78.7124 194.138C78.8468 193.918 78.9397 193.666 78.9914 193.384L81.254 193.394C81.1954 193.88 81.0491 194.348 80.8149 194.799C80.5842 195.247 80.2725 195.648 79.8799 196.003C79.4907 196.354 79.0258 196.633 78.4852 196.84C77.9479 197.043 77.3401 197.145 76.6616 197.145C75.718 197.145 74.8743 196.931 74.1304 196.504C73.39 196.077 72.8046 195.459 72.3741 194.65C71.9471 193.84 71.7335 192.861 71.7335 191.71C71.7335 190.557 71.9505 189.575 72.3844 188.766C72.8183 187.957 73.4072 187.34 74.1511 186.916C74.895 186.489 75.7318 186.276 76.6616 186.276C77.2746 186.276 77.8429 186.362 78.3663 186.534C78.8932 186.706 79.3599 186.958 79.7663 187.288C80.1726 187.616 80.5032 188.017 80.7581 188.492C81.0164 188.967 81.1817 189.511 81.254 190.124ZM82.8579 197V186.421H87.0319C87.8308 186.421 88.5127 186.563 89.0775 186.849C89.6457 187.132 90.0779 187.533 90.3741 188.053C90.6737 188.57 90.8235 189.177 90.8235 189.876C90.8235 190.579 90.672 191.183 90.3689 191.69C90.0659 192.192 89.6268 192.578 89.0517 192.847C88.48 193.115 87.7878 193.25 86.975 193.25H84.1804V191.452H86.6134C87.0405 191.452 87.3952 191.393 87.6776 191.276C87.96 191.159 88.17 190.984 88.3078 190.749C88.449 190.515 88.5196 190.224 88.5196 189.876C88.5196 189.525 88.449 189.229 88.3078 188.988C88.17 188.747 87.9582 188.564 87.6724 188.44C87.39 188.313 87.0336 188.249 86.6031 188.249H85.0947V197H82.8579ZM88.5712 192.186L91.2006 197H88.7314L86.1588 192.186H88.5712ZM92.4042 197V186.421H99.5329V188.265H94.641V190.786H99.1662V192.63H94.641V195.156H99.5536V197H92.4042ZM105.062 197H101.311V186.421H105.093C106.157 186.421 107.073 186.632 107.841 187.056C108.609 187.476 109.199 188.08 109.613 188.869C110.029 189.658 110.238 190.601 110.238 191.7C110.238 192.802 110.029 193.749 109.613 194.541C109.199 195.333 108.605 195.941 107.83 196.365C107.059 196.788 106.136 197 105.062 197ZM103.548 195.084H104.969C105.63 195.084 106.186 194.966 106.637 194.732C107.092 194.495 107.433 194.128 107.66 193.632C107.891 193.133 108.006 192.489 108.006 191.7C108.006 190.918 107.891 190.279 107.66 189.783C107.433 189.288 107.093 188.923 106.642 188.688C106.191 188.454 105.635 188.337 104.974 188.337H103.548V195.084ZM114.131 186.421V197H111.895V186.421H114.131ZM115.569 188.265V186.421H124.257V188.265H121.019V197H118.808V188.265H115.569ZM127.925 186.421V197H125.688V186.421H127.925ZM133.132 197V186.421H135.369V191.085H135.508L139.316 186.421H141.997L138.071 191.158L142.043 197H139.367L136.469 192.65L135.369 193.994V197H133.132ZM151.899 190.124H149.637C149.595 189.832 149.511 189.572 149.384 189.344C149.256 189.114 149.093 188.917 148.893 188.755C148.693 188.594 148.462 188.47 148.201 188.384C147.942 188.297 147.662 188.254 147.359 188.254C146.811 188.254 146.334 188.39 145.928 188.663C145.521 188.931 145.206 189.324 144.982 189.84C144.759 190.353 144.647 190.977 144.647 191.71C144.647 192.464 144.759 193.098 144.982 193.611C145.21 194.124 145.526 194.512 145.933 194.774C146.339 195.035 146.809 195.166 147.343 195.166C147.643 195.166 147.92 195.127 148.175 195.047C148.433 194.968 148.662 194.853 148.862 194.701C149.062 194.546 149.227 194.359 149.358 194.138C149.492 193.918 149.585 193.666 149.637 193.384L151.899 193.394C151.841 193.88 151.694 194.348 151.46 194.799C151.229 195.247 150.918 195.648 150.525 196.003C150.136 196.354 149.671 196.633 149.13 196.84C148.593 197.043 147.985 197.145 147.307 197.145C146.363 197.145 145.52 196.931 144.776 196.504C144.035 196.077 143.45 195.459 143.019 194.65C142.592 193.84 142.379 192.861 142.379 191.71C142.379 190.557 142.596 189.575 143.03 188.766C143.464 187.957 144.053 187.34 144.796 186.916C145.54 186.489 146.377 186.276 147.307 186.276C147.92 186.276 148.488 186.362 149.012 186.534C149.539 186.706 150.005 186.958 150.412 187.288C150.818 187.616 151.149 188.017 151.403 188.492C151.662 188.967 151.827 189.511 151.899 190.124ZM155.74 186.421V197H153.503V186.421H155.74ZM161.346 186.276C161.89 186.276 162.414 186.367 162.917 186.55C163.423 186.732 163.874 187.023 164.27 187.423C164.669 187.822 164.985 188.353 165.215 189.014C165.449 189.672 165.568 190.479 165.572 191.437C165.572 192.335 165.47 193.138 165.267 193.844C165.067 194.546 164.78 195.144 164.404 195.636C164.029 196.129 163.576 196.504 163.046 196.762C162.515 197.017 161.923 197.145 161.269 197.145C160.563 197.145 159.939 197.009 159.399 196.737C158.858 196.461 158.422 196.087 158.092 195.616C157.765 195.14 157.567 194.607 157.498 194.014H159.703C159.79 194.4 159.97 194.7 160.246 194.913C160.521 195.123 160.862 195.228 161.269 195.228C161.957 195.228 162.481 194.929 162.839 194.329C163.197 193.727 163.378 192.902 163.381 191.855H163.309C163.151 192.165 162.937 192.432 162.669 192.656C162.4 192.876 162.092 193.046 161.744 193.167C161.399 193.288 161.033 193.348 160.644 193.348C160.02 193.348 159.464 193.201 158.975 192.909C158.486 192.616 158.1 192.213 157.818 191.7C157.536 191.187 157.394 190.601 157.394 189.944C157.391 189.234 157.554 188.602 157.885 188.048C158.216 187.493 158.677 187.059 159.269 186.746C159.865 186.429 160.557 186.272 161.346 186.276ZM161.362 188.032C161.014 188.032 160.704 188.115 160.432 188.28C160.163 188.446 159.95 188.668 159.791 188.947C159.636 189.226 159.56 189.537 159.564 189.882C159.564 190.229 159.64 190.543 159.791 190.822C159.946 191.097 160.156 191.318 160.421 191.483C160.69 191.645 160.997 191.726 161.341 191.726C161.599 191.726 161.839 191.678 162.059 191.581C162.279 191.485 162.471 191.352 162.632 191.183C162.798 191.011 162.927 190.813 163.02 190.589C163.113 190.365 163.159 190.128 163.159 189.876C163.156 189.542 163.077 189.236 162.922 188.957C162.767 188.678 162.553 188.454 162.281 188.285C162.009 188.117 161.703 188.032 161.362 188.032Z" fill="#2B495A"/>
<path d="M45.1248 196.666H47.8748V188.666H45.1248V196.666ZM46.4998 185.999C46.8893 185.999 47.2161 185.871 47.4801 185.615C47.7441 185.359 47.8757 185.043 47.8748 184.666C47.8738 184.289 47.7418 183.973 47.4788 183.717C47.2157 183.461 46.8893 183.333 46.4998 183.333C46.1102 183.333 45.7838 183.461 45.5208 183.717C45.2577 183.973 45.1257 184.289 45.1248 184.666C45.1238 185.043 45.2558 185.36 45.5208 185.617C45.7857 185.874 46.112 186.001 46.4998 185.999ZM46.4998 203.333C44.5977 203.333 42.8102 202.982 41.1373 202.282C39.4643 201.582 38.0091 200.632 36.7716 199.433C35.5341 198.234 34.5547 196.822 33.8333 195.199C33.1118 193.576 32.7507 191.843 32.7498 189.999C32.7488 188.156 33.11 186.422 33.8333 184.799C34.5565 183.176 35.536 181.765 36.7716 180.566C38.0073 179.367 39.4625 178.417 41.1373 177.717C42.812 177.016 44.5995 176.666 46.4998 176.666C48.4 176.666 50.1875 177.016 51.8623 177.717C53.537 178.417 54.9922 179.367 56.2279 180.566C57.4636 181.765 58.4435 183.176 59.1676 184.799C59.8918 186.422 60.2525 188.156 60.2498 189.999C60.247 191.843 59.8858 193.576 59.1663 195.199C58.4467 196.822 57.4672 198.234 56.2279 199.433C54.9886 200.632 53.5333 201.582 51.8623 202.283C50.1912 202.985 48.4037 203.334 46.4998 203.333ZM46.4998 200.666C49.5706 200.666 52.1716 199.633 54.3029 197.566C56.4341 195.499 57.4998 192.977 57.4998 189.999C57.4998 187.022 56.4341 184.499 54.3029 182.433C52.1716 180.366 49.5706 179.333 46.4998 179.333C43.4289 179.333 40.8279 180.366 38.6966 182.433C36.5654 184.499 35.4998 187.022 35.4998 189.999C35.4998 192.977 36.5654 195.499 38.6966 197.566C40.8279 199.633 43.4289 200.666 46.4998 200.666Z" fill="#2B495A"/>
</g>
<rect x="0.5" y="0.5" width="1919" height="1079" stroke="black"/>
<defs>
<clipPath id="clip0_943_96">
<rect width="1920" height="1080" fill="white"/>
</clipPath>
<clipPath id="clip1_943_96">
<rect width="167" height="51" fill="white" transform="translate(33 36)"/>
</clipPath>
</defs>
</svg>
